<svg width="256" height="41" viewBox="0 0 256 41" fill="none" xmlns="http://www.w3.org/2000/svg">
<g clip-path="url(#clip0_19256_43701)">
<path d="M23.31 21.72C23.13 22.92 22.76 24.06 22.2 25.14C21.64 26.22 20.89 27.16 19.95 27.96C19.01 28.76 17.9 29.4 16.62 29.88C15.34 30.34 13.89 30.57 12.27 30.57C10.47 30.57 8.85 30.27 7.41 29.67C5.99 29.07 4.79 28.26 3.81 27.24C2.83 26.22 2.08 25.04 1.56 23.7C1.04 22.36 0.779999 20.96 0.779999 19.5C0.779999 18.04 1.03 16.65 1.53 15.33C2.05 13.99 2.8 12.81 3.78 11.79C4.76 10.77 5.94 9.95997 7.32 9.35997C8.72 8.73997 10.31 8.42997 12.09 8.42997C13.79 8.42997 15.3 8.66997 16.62 9.14997C17.94 9.62997 19.06 10.29 19.98 11.13C20.92 11.97 21.66 12.95 22.2 14.07C22.76 15.19 23.11 16.38 23.25 17.64H16.71C16.53 16.64 16.07 15.8 15.33 15.12C14.59 14.44 13.57 14.1 12.27 14.1C11.43 14.1 10.69 14.25 10.05 14.55C9.41 14.85 8.88 15.25 8.46 15.75C8.04 16.23 7.72 16.8 7.5 17.46C7.28 18.1 7.17 18.78 7.17 19.5C7.17 20.26 7.29 20.97 7.53 21.63C7.77 22.29 8.11 22.86 8.55 23.34C9.01 23.82 9.56 24.2 10.2 24.48C10.84 24.76 11.57 24.9 12.39 24.9C13.55 24.9 14.51 24.59 15.27 23.97C16.03 23.35 16.51 22.6 16.71 21.72H23.31ZM72.6956 30H66.6356V16.98L62.8256 30H58.2056L54.1556 16.98V30H48.0956V8.99997H56.0456L60.4856 22.56L64.9556 8.99997H72.6956V30ZM99.7671 30H93.7071V16.98L89.8971 30H85.2771L81.2271 16.98V30H75.1671V8.99997H83.1171L87.5571 22.56L92.0271 8.99997H99.7671V30ZM108.479 13.68V17.34H115.769V21.81H108.479V25.32H115.769V30H102.239V8.99997H115.769V13.68H108.479ZM118.031 8.99997H128.111C129.311 8.99997 130.391 9.20997 131.351 9.62997C132.331 10.05 133.161 10.62 133.841 11.34C134.541 12.04 135.071 12.87 135.431 13.83C135.811 14.77 136.001 15.77 136.001 16.83C136.001 18.27 135.661 19.59 134.981 20.79C134.301 21.99 133.361 22.93 132.161 23.61L136.361 30H129.011L125.441 24.63H124.271V30H118.031V8.99997ZM126.851 19.8C127.691 19.8 128.361 19.51 128.861 18.93C129.381 18.35 129.641 17.65 129.641 16.83C129.641 16.01 129.391 15.31 128.891 14.73C128.391 14.15 127.721 13.86 126.881 13.86H124.271V19.8H126.851ZM158.731 21.72C158.551 22.92 158.181 24.06 157.621 25.14C157.061 26.22 156.311 27.16 155.371 27.96C154.431 28.76 153.321 29.4 152.041 29.88C150.761 30.34 149.311 30.57 147.691 30.57C145.891 30.57 144.271 30.27 142.831 29.67C141.411 29.07 140.211 28.26 139.231 27.24C138.251 26.22 137.501 25.04 136.981 23.7C136.461 22.36 136.201 20.96 136.201 19.5C136.201 18.04 136.451 16.65 136.951 15.33C137.471 13.99 138.221 12.81 139.201 11.79C140.181 10.77 141.361 9.95997 142.741 9.35997C144.141 8.73997 145.731 8.42997 147.511 8.42997C149.211 8.42997 150.721 8.66997 152.041 9.14997C153.361 9.62997 154.481 10.29 155.401 11.13C156.341 11.97 157.081 12.95 157.621 14.07C158.181 15.19 158.531 16.38 158.671 17.64H152.131C151.951 16.64 151.491 15.8 150.751 15.12C150.011 14.44 148.991 14.1 147.691 14.1C146.851 14.1 146.111 14.25 145.471 14.55C144.831 14.85 144.301 15.25 143.881 15.75C143.461 16.23 143.141 16.8 142.921 17.46C142.701 18.1 142.591 18.78 142.591 19.5C142.591 20.26 142.711 20.97 142.951 21.63C143.191 22.29 143.531 22.86 143.971 23.34C144.431 23.82 144.981 24.2 145.621 24.48C146.261 24.76 146.991 24.9 147.811 24.9C148.971 24.9 149.931 24.59 150.691 23.97C151.451 23.35 151.931 22.6 152.131 21.72H158.731ZM166.314 13.68V17.34H173.604V21.81H166.314V25.32H173.604V30H160.074V8.99997H173.604V13.68H166.314ZM187.967 13.68V17.34H195.257V21.81H187.967V25.32H195.257V30H181.727V8.99997H195.257V13.68H187.967ZM184.637 8.06997L183.287 4.28997L192.377 0.719971L193.727 4.49997L184.637 8.06997ZM222.119 30H216.059V16.98L212.249 30H207.629L203.579 16.98V30H197.519V8.99997H205.469L209.909 22.56L214.379 8.99997H222.119V30ZM234.911 30.57C233.111 30.57 231.501 30.27 230.081 29.67C228.681 29.05 227.491 28.23 226.511 27.21C225.551 26.19 224.811 25.01 224.291 23.67C223.791 22.33 223.541 20.94 223.541 19.5C223.541 18.06 223.791 16.67 224.291 15.33C224.811 13.99 225.551 12.81 226.511 11.79C227.491 10.77 228.681 9.95997 230.081 9.35997C231.501 8.73997 233.111 8.42997 234.911 8.42997C236.711 8.42997 238.321 8.73997 239.741 9.35997C241.161 9.95997 242.351 10.77 243.311 11.79C244.291 12.81 245.031 13.99 245.531 15.33C246.051 16.67 246.311 18.06 246.311 19.5C246.311 20.94 246.051 22.33 245.531 23.67C245.031 25.01 244.291 26.19 243.311 27.21C242.351 28.23 241.161 29.05 239.741 29.67C238.321 30.27 236.711 30.57 234.911 30.57ZM234.911 24.87C235.711 24.87 236.421 24.72 237.041 24.42C237.681 24.12 238.211 23.73 238.631 23.25C239.071 22.75 239.401 22.18 239.621 21.54C239.861 20.88 239.981 20.2 239.981 19.5C239.981 18.8 239.861 18.13 239.621 17.49C239.401 16.83 239.071 16.26 238.631 15.78C238.211 15.28 237.681 14.88 237.041 14.58C236.421 14.28 235.711 14.13 234.911 14.13C234.111 14.13 233.391 14.28 232.751 14.58C232.131 14.88 231.601 15.28 231.161 15.78C230.741 16.26 230.411 16.83 230.171 17.49C229.951 18.13 229.841 18.8 229.841 19.5C229.841 20.2 229.951 20.88 230.171 21.54C230.411 22.18 230.741 22.75 231.161 23.25C231.601 23.73 232.131 24.12 232.751 24.42C233.391 24.72 234.111 24.87 234.911 24.87ZM247.707 8.99997H254.007V30H247.707V8.99997Z" fill="#FF5935"/>
<mask id="mask0_19256_43701" style="mask-type:luminance" maskUnits="userSpaceOnUse" x="-2" y="-2" width="259" height="35">
<path d="M257 -2H-2V33H257V-2Z" fill="white"/>
<path d="M23.31 21.72C23.13 22.92 22.76 24.06 22.2 25.14C21.64 26.22 20.89 27.16 19.95 27.96C19.01 28.76 17.9 29.4 16.62 29.88C15.34 30.34 13.89 30.57 12.27 30.57C10.47 30.57 8.85 30.27 7.41 29.67C5.99 29.07 4.79 28.26 3.81 27.24C2.83 26.22 2.08 25.04 1.56 23.7C1.04 22.36 0.779999 20.96 0.779999 19.5C0.779999 18.04 1.03 16.65 1.53 15.33C2.05 13.99 2.8 12.81 3.78 11.79C4.76 10.77 5.94 9.95997 7.32 9.35997C8.72 8.73997 10.31 8.42997 12.09 8.42997C13.79 8.42997 15.3 8.66997 16.62 9.14997C17.94 9.62997 19.06 10.29 19.98 11.13C20.92 11.97 21.66 12.95 22.2 14.07C22.76 15.19 23.11 16.38 23.25 17.64H16.71C16.53 16.64 16.07 15.8 15.33 15.12C14.59 14.44 13.57 14.1 12.27 14.1C11.43 14.1 10.69 14.25 10.05 14.55C9.41 14.85 8.88 15.25 8.46 15.75C8.04 16.23 7.72 16.8 7.5 17.46C7.28 18.1 7.17 18.78 7.17 19.5C7.17 20.26 7.29 20.97 7.53 21.63C7.77 22.29 8.11 22.86 8.55 23.34C9.01 23.82 9.56 24.2 10.2 24.48C10.84 24.76 11.57 24.9 12.39 24.9C13.55 24.9 14.51 24.59 15.27 23.97C16.03 23.35 16.51 22.6 16.71 21.72H23.31ZM72.6956 30H66.6356V16.98L62.8256 30H58.2056L54.1556 16.98V30H48.0956V8.99997H56.0456L60.4856 22.56L64.9556 8.99997H72.6956V30ZM99.7671 30H93.7071V16.98L89.8971 30H85.2771L81.2271 16.98V30H75.1671V8.99997H83.1171L87.5571 22.56L92.0271 8.99997H99.7671V30ZM108.479 13.68V17.34H115.769V21.81H108.479V25.32H115.769V30H102.239V8.99997H115.769V13.68H108.479ZM118.031 8.99997H128.111C129.311 8.99997 130.391 9.20997 131.351 9.62997C132.331 10.05 133.161 10.62 133.841 11.34C134.541 12.04 135.071 12.87 135.431 13.83C135.811 14.77 136.001 15.77 136.001 16.83C136.001 18.27 135.661 19.59 134.981 20.79C134.301 21.99 133.361 22.93 132.161 23.61L136.361 30H129.011L125.441 24.63H124.271V30H118.031V8.99997ZM126.851 19.8C127.691 19.8 128.361 19.51 128.861 18.93C129.381 18.35 129.641 17.65 129.641 16.83C129.641 16.01 129.391 15.31 128.891 14.73C128.391 14.15 127.721 13.86 126.881 13.86H124.271V19.8H126.851ZM158.731 21.72C158.551 22.92 158.181 24.06 157.621 25.14C157.061 26.22 156.311 27.16 155.371 27.96C154.431 28.76 153.321 29.4 152.041 29.88C150.761 30.34 149.311 30.57 147.691 30.57C145.891 30.57 144.271 30.27 142.831 29.67C141.411 29.07 140.211 28.26 139.231 27.24C138.251 26.22 137.501 25.04 136.981 23.7C136.461 22.36 136.201 20.96 136.201 19.5C136.201 18.04 136.451 16.65 136.951 15.33C137.471 13.99 138.221 12.81 139.201 11.79C140.181 10.77 141.361 9.95997 142.741 9.35997C144.141 8.73997 145.731 8.42997 147.511 8.42997C149.211 8.42997 150.721 8.66997 152.041 9.14997C153.361 9.62997 154.481 10.29 155.401 11.13C156.341 11.97 157.081 12.95 157.621 14.07C158.181 15.19 158.531 16.38 158.671 17.64H152.131C151.951 16.64 151.491 15.8 150.751 15.12C150.011 14.44 148.991 14.1 147.691 14.1C146.851 14.1 146.111 14.25 145.471 14.55C144.831 14.85 144.301 15.25 143.881 15.75C143.461 16.23 143.141 16.8 142.921 17.46C142.701 18.1 142.591 18.78 142.591 19.5C142.591 20.26 142.711 20.97 142.951 21.63C143.191 22.29 143.531 22.86 143.971 23.34C144.431 23.82 144.981 24.2 145.621 24.48C146.261 24.76 146.991 24.9 147.811 24.9C148.971 24.9 149.931 24.59 150.691 23.97C151.451 23.35 151.931 22.6 152.131 21.72H158.731ZM166.314 13.68V17.34H173.604V21.81H166.314V25.32H173.604V30H160.074V8.99997H173.604V13.68H166.314ZM187.967 13.68V17.34H195.257V21.81H187.967V25.32H195.257V30H181.727V8.99997H195.257V13.68H187.967ZM184.637 8.06997L183.287 4.28997L192.377 0.719971L193.727 4.49997L184.637 8.06997ZM222.119 30H216.059V16.98L212.249 30H207.629L203.579 16.98V30H197.519V8.99997H205.469L209.909 22.56L214.379 8.99997H222.119V30ZM234.911 30.57C233.111 30.57 231.501 30.27 230.081 29.67C228.681 29.05 227.491 28.23 226.511 27.21C225.551 26.19 224.811 25.01 224.291 23.67C223.791 22.33 223.541 20.94 223.541 19.5C223.541 18.06 223.791 16.67 224.291 15.33C224.811 13.99 225.551 12.81 226.511 11.79C227.491 10.77 228.681 9.95997 230.081 9.35997C231.501 8.73997 233.111 8.42997 234.911 8.42997C236.711 8.42997 238.321 8.73997 239.741 9.35997C241.161 9.95997 242.351 10.77 243.311 11.79C244.291 12.81 245.031 13.99 245.531 15.33C246.051 16.67 246.311 18.06 246.311 19.5C246.311 20.94 246.051 22.33 245.531 23.67C245.031 25.01 244.291 26.19 243.311 27.21C242.351 28.23 241.161 29.05 239.741 29.67C238.321 30.27 236.711 30.57 234.911 30.57ZM234.911 24.87C235.711 24.87 236.421 24.72 237.041 24.42C237.681 24.12 238.211 23.73 238.631 23.25C239.071 22.75 239.401 22.18 239.621 21.54C239.861 20.88 239.981 20.2 239.981 19.5C239.981 18.8 239.861 18.13 239.621 17.49C239.401 16.83 239.071 16.26 238.631 15.78C238.211 15.28 237.681 14.88 237.041 14.58C236.421 14.28 235.711 14.13 234.911 14.13C234.111 14.13 233.391 14.28 232.751 14.58C232.131 14.88 231.601 15.28 231.161 15.78C230.741 16.26 230.411 16.83 230.171 17.49C229.951 18.13 229.841 18.8 229.841 19.5C229.841 20.2 229.951 20.88 230.171 21.54C230.411 22.18 230.741 22.75 231.161 23.25C231.601 23.73 232.131 24.12 232.751 24.42C233.391 24.72 234.111 24.87 234.911 24.87ZM247.707 8.99997H254.007V30H247.707V8.99997Z" fill="black"/>
</mask>
<g mask="url(#mask0_19256_43701)">
<path d="M23.31 21.72L25.2879 22.0167L25.6324 19.72H23.31V21.72ZM16.62 29.88L17.2964 31.7621L17.3094 31.7575L17.3222 31.7527L16.62 29.88ZM7.41 29.67L6.63156 31.5123L6.64077 31.5162L7.41 29.67ZM1.53 15.33L-0.334532 14.6065L-0.337456 14.614L-0.34032 14.6215L1.53 15.33ZM7.32 9.36L8.11747 11.1942L8.12985 11.1887L7.32 9.36ZM19.98 11.13L18.6315 12.607L18.6394 12.6142L18.6473 12.6213L19.98 11.13ZM22.2 14.07L20.3985 14.9386L20.4047 14.9516L20.4111 14.9644L22.2 14.07ZM23.25 17.64V19.64H25.4845L25.2378 17.4191L23.25 17.64ZM16.71 17.64L14.7416 17.9943L15.0379 19.64H16.71V17.64ZM8.46 15.75L9.96515 17.067L9.97844 17.0518L9.99141 17.0364L8.46 15.75ZM7.5 17.46L9.39137 18.1102L9.39441 18.1013L9.39737 18.0925L7.5 17.46ZM8.55 23.34L7.07569 24.6914L7.09068 24.7078L7.10602 24.7238L8.55 23.34ZM16.71 21.72V19.72H15.1135L14.7597 21.2768L16.71 21.72ZM21.3321 21.4233C21.1849 22.405 20.8834 23.3343 20.4245 24.2194L23.9755 26.0606C24.6366 24.7857 25.0751 23.435 25.2879 22.0167L21.3321 21.4233ZM20.4245 24.2194C19.9855 25.066 19.3995 25.8023 18.6538 26.4369L21.2462 29.4831C22.3805 28.5177 23.2945 27.374 23.9755 26.0606L20.4245 24.2194ZM18.6538 26.4369C17.908 27.0716 17.0042 27.5999 15.9178 28.0073L17.3222 31.7527C18.7958 31.2001 20.112 30.4484 21.2462 29.4831L18.6538 26.4369ZM15.9436 27.9979C14.9176 28.3666 13.7023 28.57 12.27 28.57V32.57C14.0777 32.57 15.7624 32.3134 17.2964 31.7621L15.9436 27.9979ZM12.27 28.57C10.6938 28.57 9.34091 28.3079 8.17923 27.8238L6.64077 31.5162C8.35909 32.2321 10.2462 32.57 12.27 32.57V28.57ZM8.18843 27.8277C6.99574 27.3238 6.02791 26.6617 5.25221 25.8543L2.36779 28.6257C3.5521 29.8583 4.98425 30.8162 6.63156 31.5123L8.18843 27.8277ZM5.25221 25.8543C4.45837 25.0281 3.85048 24.0741 3.42453 22.9765L-0.304532 24.4235C0.309517 26.0059 1.20163 27.4119 2.36779 28.6257L5.25221 25.8543ZM3.42453 22.9765C2.9955 21.8709 2.78 20.7165 2.78 19.5H-1.22C-1.22 21.2035 -0.915497 22.8491 -0.304532 24.4235L3.42453 22.9765ZM2.78 19.5C2.78 18.2736 2.989 17.1243 3.40032 16.0385L-0.34032 14.6215C-0.929004 16.1757 -1.22 17.8064 -1.22 19.5H2.78ZM3.39453 16.0535C3.82048 14.9559 4.42837 14.0019 5.22221 13.1757L2.33779 10.4043C1.17163 11.6181 0.279517 13.0241 -0.334532 14.6065L3.39453 16.0535ZM5.22221 13.1757C6.00755 12.3583 6.96423 11.6956 8.11747 11.1942L6.52255 7.52586C4.91579 8.22445 3.51245 9.18175 2.33779 10.4043L5.22221 13.1757ZM8.12985 11.1887C9.23668 10.6985 10.544 10.43 12.09 10.43V6.43C10.076 6.43 8.20333 6.78146 6.51015 7.5313L8.12985 11.1887ZM12.09 10.43C13.6044 10.43 14.8762 10.644 15.9365 11.0296L17.3035 7.27041C15.7238 6.69598 13.9756 6.43 12.09 6.43V10.43ZM15.9365 11.0296C17.0419 11.4315 17.9278 11.9645 18.6315 12.607L21.3285 9.65303C20.1922 8.61551 18.8381 7.82847 17.3035 7.27041L15.9365 11.0296ZM18.6473 12.6213C19.3945 13.289 19.974 14.0583 20.3985 14.9386L24.0015 13.2014C23.346 11.8417 22.4455 10.651 21.3127 9.63869L18.6473 12.6213ZM20.4111 14.9644C20.8643 15.8707 21.148 16.8324 21.2622 17.8609L25.2378 17.4191C25.072 15.9276 24.6557 14.5093 23.9889 13.1756L20.4111 14.9644ZM23.25 15.64H16.71V19.64H23.25V15.64ZM18.6784 17.2857C18.4219 15.8609 17.7487 14.6264 16.6833 13.6473L13.9768 16.5927C14.3913 16.9736 14.6381 17.4191 14.7416 17.9943L18.6784 17.2857ZM16.6833 13.6473C15.4759 12.5379 13.9195 12.1 12.27 12.1V16.1C13.2205 16.1 13.7041 16.3421 13.9768 16.5927L16.6833 13.6473ZM12.27 12.1C11.1912 12.1 10.1522 12.2933 9.20113 12.7391L10.8989 16.3609C11.2278 16.2067 11.6688 16.1 12.27 16.1V12.1ZM9.20113 12.7391C8.32024 13.152 7.55035 13.7234 6.92859 14.4636L9.99141 17.0364C10.2096 16.7766 10.4998 16.548 10.8989 16.3609L9.20113 12.7391ZM6.95485 14.433C6.34465 15.1304 5.89895 15.9386 5.60263 16.8275L9.39737 18.0925C9.54105 17.6614 9.73535 17.3296 9.96515 17.067L6.95485 14.433ZM5.60863 16.8098C5.31223 17.6721 5.17 18.573 5.17 19.5H9.17C9.17 18.987 9.24777 18.5279 9.39137 18.1102L5.60863 16.8098ZM5.17 19.5C5.17 20.4739 5.32444 21.4171 5.65041 22.3135L9.40959 20.9465C9.25556 20.5229 9.17 20.0461 9.17 19.5H5.17ZM5.65041 22.3135C5.97316 23.201 6.44444 24.0028 7.07569 24.6914L10.0243 21.9885C9.77556 21.7172 9.56684 21.379 9.40959 20.9465L5.65041 22.3135ZM7.10602 24.7238C7.75766 25.4038 8.52924 25.9321 9.39836 26.3123L11.0016 22.6477C10.5908 22.4679 10.2623 22.2362 9.99398 21.9562L7.10602 24.7238ZM9.39836 26.3123C10.3312 26.7204 11.3415 26.9 12.39 26.9V22.9C11.7985 22.9 11.3488 22.7996 11.0016 22.6477L9.39836 26.3123ZM12.39 26.9C13.9228 26.9 15.3547 26.482 16.5343 25.5197L14.0057 22.4203C13.6653 22.698 13.1772 22.9 12.39 22.9V26.9ZM16.5343 25.5197C17.608 24.6438 18.3526 23.5168 18.6603 22.1632L14.7597 21.2768C14.6674 21.6832 14.452 22.0562 14.0057 22.4203L16.5343 25.5197ZM16.71 23.72H23.31V19.72H16.71V23.72ZM72.6956 30V32H74.6956V30H72.6956ZM66.6356 30H64.6356V32H66.6356V30ZM66.6356 16.98H68.6356L64.7161 16.4183L66.6356 16.98ZM62.8256 30V32H64.3242L64.7451 30.5617L62.8256 30ZM58.2056 30L56.2959 30.594L56.7332 32H58.2056V30ZM54.1556 16.98L56.0654 16.386L52.1556 16.98H54.1556ZM54.1556 30V32H56.1556V30H54.1556ZM48.0956 30H46.0956V32H48.0956V30ZM48.0956 9V7H46.0956V9H48.0956ZM56.0456 9L57.9463 8.37764L57.4952 7H56.0456V9ZM60.4856 22.56L58.5849 23.1824L60.4792 28.9677L62.3851 23.1861L60.4856 22.56ZM64.9556 9V7H63.5091L63.0562 8.37385L64.9556 9ZM72.6956 9H74.6956V7H72.6956V9ZM72.6956 28H66.6356V32H72.6956V28ZM68.6356 30V16.98H64.6356V30H68.6356ZM64.7161 16.4183L60.9061 29.4383L64.7451 30.5617L68.5551 17.5417L64.7161 16.4183ZM62.8256 28H58.2056V32H62.8256V28ZM60.1154 29.406L56.0654 16.386L52.2459 17.574L56.2959 30.594L60.1154 29.406ZM52.1556 16.98V30H56.1556V16.98H52.1556ZM54.1556 28H48.0956V32H54.1556V28ZM50.0956 30V9H46.0956V30H50.0956ZM48.0956 11H56.0456V7H48.0956V11ZM54.1449 9.62235L58.5849 23.1824L62.3863 21.9376L57.9463 8.37764L54.1449 9.62235ZM62.3851 23.1861L66.8551 9.62615L63.0562 8.37385L58.5862 21.9339L62.3851 23.1861ZM64.9556 11H72.6956V7H64.9556V11ZM70.6956 9V30H74.6956V9H70.6956ZM99.7671 30V32H101.767V30H99.7671ZM93.7071 30H91.7071V32H93.7071V30ZM93.7071 16.98H95.7071L91.7876 16.4183L93.7071 16.98ZM89.8971 30V32H91.3957L91.8166 30.5617L89.8971 30ZM85.2771 30L83.3674 30.594L83.8047 32H85.2771V30ZM81.2271 16.98L83.1369 16.386L79.2271 16.98H81.2271ZM81.2271 30V32H83.2271V30H81.2271ZM75.1671 30H73.1671V32H75.1671V30ZM75.1671 9V7H73.1671V9H75.1671ZM83.1171 9L85.0178 8.37764L84.5667 7H83.1171V9ZM87.5571 22.56L85.6564 23.1824L87.5507 28.9677L89.4566 23.1861L87.5571 22.56ZM92.0271 9V7H90.5805L90.1277 8.37385L92.0271 9ZM99.7671 9H101.767V7H99.7671V9ZM99.7671 28H93.7071V32H99.7671V28ZM95.7071 30V16.98H91.7071V30H95.7071ZM91.7876 16.4183L87.9776 29.4383L91.8166 30.5617L95.6266 17.5417L91.7876 16.4183ZM89.8971 28H85.2771V32H89.8971V28ZM87.1869 29.406L83.1369 16.386L79.3174 17.574L83.3674 30.594L87.1869 29.406ZM79.2271 16.98V30H83.2271V16.98H79.2271ZM81.2271 28H75.1671V32H81.2271V28ZM77.1671 30V9H73.1671V30H77.1671ZM75.1671 11H83.1171V7H75.1671V11ZM81.2164 9.62235L85.6564 23.1824L89.4578 21.9376L85.0178 8.37764L81.2164 9.62235ZM89.4566 23.1861L93.9266 9.62615L90.1277 8.37385L85.6577 21.9339L89.4566 23.1861ZM92.0271 11H99.7671V7H92.0271V11ZM97.7671 9V30H101.767V9H97.7671ZM108.479 13.68V11.68H106.479V13.68H108.479ZM108.479 17.34H106.479V19.34H108.479V17.34ZM115.769 17.34H117.769V15.34H115.769V17.34ZM115.769 21.81V23.81H117.769V21.81H115.769ZM108.479 21.81V19.81H106.479V21.81H108.479ZM108.479 25.32H106.479V27.32H108.479V25.32ZM115.769 25.32H117.769V23.32H115.769V25.32ZM115.769 30V32H117.769V30H115.769ZM102.239 30H100.239V32H102.239V30ZM102.239 9V7H100.239V9H102.239ZM115.769 9H117.769V7H115.769V9ZM115.769 13.68V15.68H117.769V13.68H115.769ZM106.479 13.68V17.34H110.479V13.68H106.479ZM108.479 19.34H115.769V15.34H108.479V19.34ZM113.769 17.34V21.81H117.769V17.34H113.769ZM115.769 19.81H108.479V23.81H115.769V19.81ZM106.479 21.81V25.32H110.479V21.81H106.479ZM108.479 27.32H115.769V23.32H108.479V27.32ZM113.769 25.32V30H117.769V25.32H113.769ZM115.769 28H102.239V32H115.769V28ZM104.239 30V9H100.239V30H104.239ZM102.239 11H115.769V7H102.239V11ZM113.769 9V13.68H117.769V9H113.769ZM115.769 11.68H108.479V15.68H115.769V11.68ZM118.031 9V7H116.031V9H118.031ZM131.351 9.63L130.549 11.4623L130.556 11.4653L130.563 11.4683L131.351 9.63ZM133.841 11.34L132.387 12.7132L132.406 12.734L132.427 12.7542L133.841 11.34ZM135.431 13.83L133.558 14.5322L133.567 14.556L133.577 14.5796L135.431 13.83ZM132.161 23.61L131.175 21.87L129.316 22.9232L130.489 24.7085L132.161 23.61ZM136.361 30V32H140.069L138.032 28.9015L136.361 30ZM129.011 30L127.345 31.1073L127.939 32H129.011V30ZM125.441 24.63L127.106 23.5227L126.513 22.63H125.441V24.63ZM124.271 24.63V22.63H122.271V24.63H124.271ZM124.271 30V32H126.271V30H124.271ZM118.031 30H116.031V32H118.031V30ZM128.861 18.93L127.372 17.5949L127.359 17.6094L127.346 17.6241L128.861 18.93ZM124.271 13.86V11.86H122.271V13.86H124.271ZM124.271 19.8H122.271V21.8H124.271V19.8ZM118.031 11H128.111V7H118.031V11ZM128.111 11C129.075 11 129.876 11.1678 130.549 11.4623L132.152 7.79769C130.905 7.25216 129.547 7 128.111 7V11ZM130.563 11.4683C131.311 11.7888 131.909 12.2071 132.387 12.7132L135.295 9.96675C134.413 9.03292 133.351 8.31115 132.139 7.79171L130.563 11.4683ZM132.427 12.7542C132.917 13.2451 133.295 13.8298 133.558 14.5322L137.303 13.1278C136.847 11.9102 136.164 10.8349 135.255 9.92579L132.427 12.7542ZM133.577 14.5796C133.856 15.2706 134.001 16.015 134.001 16.83H138.001C138.001 15.525 137.766 14.2694 137.285 13.0804L133.577 14.5796ZM134.001 16.83C134.001 17.9402 133.743 18.9181 133.241 19.804L136.721 21.776C137.579 20.2619 138.001 18.5998 138.001 16.83H134.001ZM133.241 19.804C132.739 20.689 132.06 21.3684 131.175 21.87L133.147 25.35C134.662 24.4916 135.862 23.291 136.721 21.776L133.241 19.804ZM130.489 24.7085L134.689 31.0985L138.032 28.9015L133.832 22.5115L130.489 24.7085ZM136.361 28H129.011V32H136.361V28ZM130.676 28.8927L127.106 23.5227L123.775 25.7373L127.345 31.1073L130.676 28.8927ZM125.441 22.63H124.271V26.63H125.441V22.63ZM122.271 24.63V30H126.271V24.63H122.271ZM124.271 28H118.031V32H124.271V28ZM120.031 30V9H116.031V30H120.031ZM126.851 21.8C128.209 21.8 129.456 21.3026 130.376 20.2359L127.346 17.6241C127.266 17.7174 127.172 17.8 126.851 17.8V21.8ZM130.35 20.2651C131.217 19.2976 131.641 18.1144 131.641 16.83H127.641C127.641 17.1856 127.544 17.4024 127.372 17.5949L130.35 20.2651ZM131.641 16.83C131.641 15.5674 131.242 14.3941 130.406 13.4241L127.376 16.0359C127.54 16.2259 127.641 16.4526 127.641 16.83H131.641ZM130.406 13.4241C129.486 12.3574 128.239 11.86 126.881 11.86V15.86C127.202 15.86 127.296 15.9426 127.376 16.0359L130.406 13.4241ZM126.881 11.86H124.271V15.86H126.881V11.86ZM122.271 13.86V19.8H126.271V13.86H122.271ZM124.271 21.8H126.851V17.8H124.271V21.8ZM158.731 21.72L160.709 22.0167L161.053 19.72H158.731V21.72ZM152.041 29.88L152.717 31.7621L152.73 31.7575L152.743 31.7527L152.041 29.88ZM142.831 29.67L142.052 31.5123L142.061 31.5162L142.831 29.67ZM136.951 15.33L135.086 14.6065L135.083 14.614L135.08 14.6215L136.951 15.33ZM142.741 9.36L143.538 11.1942L143.551 11.1887L142.741 9.36ZM155.401 11.13L154.052 12.607L154.06 12.6142L154.068 12.6213L155.401 11.13ZM157.621 14.07L155.819 14.9386L155.825 14.9516L155.832 14.9644L157.621 14.07ZM158.671 17.64V19.64H160.905L160.658 17.4191L158.671 17.64ZM152.131 17.64L150.162 17.9943L150.459 19.64H152.131V17.64ZM143.881 15.75L145.386 17.067L145.399 17.0518L145.412 17.0364L143.881 15.75ZM142.921 17.46L144.812 18.1102L144.815 18.1013L144.818 18.0925L142.921 17.46ZM143.971 23.34L142.496 24.6914L142.511 24.7078L142.527 24.7238L143.971 23.34ZM152.131 21.72V19.72H150.534L150.18 21.2768L152.131 21.72ZM156.753 21.4233C156.606 22.405 156.304 23.3343 155.845 24.2194L159.396 26.0606C160.057 24.7857 160.496 23.435 160.709 22.0167L156.753 21.4233ZM155.845 24.2194C155.406 25.066 154.82 25.8023 154.074 26.4369L156.667 29.4831C157.801 28.5177 158.715 27.374 159.396 26.0606L155.845 24.2194ZM154.074 26.4369C153.329 27.0716 152.425 27.5999 151.338 28.0073L152.743 31.7527C154.216 31.2001 155.533 30.4484 156.667 29.4831L154.074 26.4369ZM151.364 27.9979C150.338 28.3666 149.123 28.57 147.691 28.57V32.57C149.498 32.57 151.183 32.3134 152.717 31.7621L151.364 27.9979ZM147.691 28.57C146.115 28.57 144.762 28.3079 143.6 27.8238L142.061 31.5162C143.78 32.2321 145.667 32.57 147.691 32.57V28.57ZM143.609 27.8277C142.416 27.3238 141.449 26.6617 140.673 25.8543L137.788 28.6257C138.973 29.8583 140.405 30.8162 142.052 31.5123L143.609 27.8277ZM140.673 25.8543C139.879 25.0281 139.271 24.0741 138.845 22.9765L135.116 24.4235C135.73 26.0059 136.622 27.4119 137.788 28.6257L140.673 25.8543ZM138.845 22.9765C138.416 21.8709 138.201 20.7165 138.201 19.5H134.201C134.201 21.2035 134.505 22.8491 135.116 24.4235L138.845 22.9765ZM138.201 19.5C138.201 18.2736 138.41 17.1243 138.821 16.0385L135.08 14.6215C134.492 16.1757 134.201 17.8064 134.201 19.5H138.201ZM138.815 16.0535C139.241 14.9559 139.849 14.0019 140.643 13.1757L137.758 10.4043C136.592 11.6181 135.7 13.0241 135.086 14.6065L138.815 16.0535ZM140.643 13.1757C141.428 12.3583 142.385 11.6956 143.538 11.1942L141.943 7.52586C140.336 8.22445 138.933 9.18175 137.758 10.4043L140.643 13.1757ZM143.551 11.1887C144.657 10.6985 145.965 10.43 147.511 10.43V6.43C145.497 6.43 143.624 6.78146 141.931 7.5313L143.551 11.1887ZM147.511 10.43C149.025 10.43 150.297 10.644 151.357 11.0296L152.724 7.27041C151.144 6.69598 149.396 6.43 147.511 6.43V10.43ZM151.357 11.0296C152.463 11.4315 153.348 11.9645 154.052 12.607L156.749 9.65303C155.613 8.61551 154.259 7.82847 152.724 7.27041L151.357 11.0296ZM154.068 12.6213C154.815 13.289 155.395 14.0583 155.819 14.9386L159.422 13.2014C158.767 11.8417 157.866 10.651 156.733 9.63869L154.068 12.6213ZM155.832 14.9644C156.285 15.8707 156.569 16.8324 156.683 17.8609L160.658 17.4191C160.493 15.9276 160.076 14.5093 159.41 13.1756L155.832 14.9644ZM158.671 15.64H152.131V19.64H158.671V15.64ZM154.099 17.2857C153.843 15.8609 153.169 14.6264 152.104 13.6473L149.397 16.5927C149.812 16.9736 150.059 17.4191 150.162 17.9943L154.099 17.2857ZM152.104 13.6473C150.897 12.5379 149.34 12.1 147.691 12.1V16.1C148.641 16.1 149.125 16.3421 149.397 16.5927L152.104 13.6473ZM147.691 12.1C146.612 12.1 145.573 12.2933 144.622 12.7391L146.32 16.3609C146.649 16.2067 147.089 16.1 147.691 16.1V12.1ZM144.622 12.7391C143.741 13.152 142.971 13.7234 142.349 14.4636L145.412 17.0364C145.63 16.7766 145.92 16.548 146.32 16.3609L144.622 12.7391ZM142.376 14.433C141.765 15.1304 141.32 15.9386 141.023 16.8275L144.818 18.0925C144.962 17.6614 145.156 17.3296 145.386 17.067L142.376 14.433ZM141.029 16.8098C140.733 17.6721 140.591 18.573 140.591 19.5H144.591C144.591 18.987 144.668 18.5279 144.812 18.1102L141.029 16.8098ZM140.591 19.5C140.591 20.4739 140.745 21.4171 141.071 22.3135L144.83 20.9465C144.676 20.5229 144.591 20.0461 144.591 19.5H140.591ZM141.071 22.3135C141.394 23.201 141.865 24.0028 142.496 24.6914L145.445 21.9885C145.196 21.7172 144.988 21.379 144.83 20.9465L141.071 22.3135ZM142.527 24.7238C143.178 25.4038 143.95 25.9321 144.819 26.3123L146.422 22.6477C146.011 22.4679 145.683 22.2362 145.415 21.9562L142.527 24.7238ZM144.819 26.3123C145.752 26.7204 146.762 26.9 147.811 26.9V22.9C147.219 22.9 146.769 22.7996 146.422 22.6477L144.819 26.3123ZM147.811 26.9C149.344 26.9 150.775 26.482 151.955 25.5197L149.426 22.4203C149.086 22.698 148.598 22.9 147.811 22.9V26.9ZM151.955 25.5197C153.029 24.6438 153.773 23.5168 154.081 22.1632L150.18 21.2768C150.088 21.6832 149.873 22.0562 149.426 22.4203L151.955 25.5197ZM152.131 23.72H158.731V19.72H152.131V23.72ZM166.314 13.68V11.68H164.314V13.68H166.314ZM166.314 17.34H164.314V19.34H166.314V17.34ZM173.604 17.34H175.604V15.34H173.604V17.34ZM173.604 21.81V23.81H175.604V21.81H173.604ZM166.314 21.81V19.81H164.314V21.81H166.314ZM166.314 25.32H164.314V27.32H166.314V25.32ZM173.604 25.32H175.604V23.32H173.604V25.32ZM173.604 30V32H175.604V30H173.604ZM160.074 30H158.074V32H160.074V30ZM160.074 9V7H158.074V9H160.074ZM173.604 9H175.604V7H173.604V9ZM173.604 13.68V15.68H175.604V13.68H173.604ZM164.314 13.68V17.34H168.314V13.68H164.314ZM166.314 19.34H173.604V15.34H166.314V19.34ZM171.604 17.34V21.81H175.604V17.34H171.604ZM173.604 19.81H166.314V23.81H173.604V19.81ZM164.314 21.81V25.32H168.314V21.81H164.314ZM166.314 27.32H173.604V23.32H166.314V27.32ZM171.604 25.32V30H175.604V25.32H171.604ZM173.604 28H160.074V32H173.604V28ZM162.074 30V9H158.074V30H162.074ZM160.074 11H173.604V7H160.074V11ZM171.604 9V13.68H175.604V9H171.604ZM173.604 11.68H166.314V15.68H173.604V11.68ZM187.967 13.68V11.68H185.967V13.68H187.967ZM187.967 17.34H185.967V19.34H187.967V17.34ZM195.257 17.34H197.257V15.34H195.257V17.34ZM195.257 21.81V23.81H197.257V21.81H195.257ZM187.967 21.81V19.81H185.967V21.81H187.967ZM187.967 25.32H185.967V27.32H187.967V25.32ZM195.257 25.32H197.257V23.32H195.257V25.32ZM195.257 30V32H197.257V30H195.257ZM181.727 30H179.727V32H181.727V30ZM181.727 9V7H179.727V9H181.727ZM195.257 9H197.257V7H195.257V9ZM195.257 13.68V15.68H197.257V13.68H195.257ZM184.637 8.07L182.753 8.74267L183.447 10.6859L185.368 9.93158L184.637 8.07ZM183.287 4.29L182.556 2.42842L180.751 3.13707L181.403 4.96267L183.287 4.29ZM192.377 0.719994L194.26 0.0473211L193.566 -1.89587L191.646 -1.14158L192.377 0.719994ZM193.727 4.5L194.458 6.36158L196.262 5.65293L195.61 3.82733L193.727 4.5ZM185.967 13.68V17.34H189.967V13.68H185.967ZM187.967 19.34H195.257V15.34H187.967V19.34ZM193.257 17.34V21.81H197.257V17.34H193.257ZM195.257 19.81H187.967V23.81H195.257V19.81ZM185.967 21.81V25.32H189.967V21.81H185.967ZM187.967 27.32H195.257V23.32H187.967V27.32ZM193.257 25.32V30H197.257V25.32H193.257ZM195.257 28H181.727V32H195.257V28ZM183.727 30V9H179.727V30H183.727ZM181.727 11H195.257V7H181.727V11ZM193.257 9V13.68H197.257V9H193.257ZM195.257 11.68H187.967V15.68H195.257V11.68ZM186.52 7.39733L185.17 3.61733L181.403 4.96267L182.753 8.74267L186.52 7.39733ZM184.018 6.15158L193.108 2.58158L191.646 -1.14158L182.556 2.42842L184.018 6.15158ZM190.493 1.39267L191.843 5.17267L195.61 3.82733L194.26 0.0473211L190.493 1.39267ZM192.996 2.63842L183.906 6.20842L185.368 9.93158L194.458 6.36158L192.996 2.63842ZM222.119 30V32H224.119V30H222.119ZM216.059 30H214.059V32H216.059V30ZM216.059 16.98H218.059L214.14 16.4183L216.059 16.98ZM212.249 30V32H213.748L214.169 30.5617L212.249 30ZM207.629 30L205.719 30.594L206.157 32H207.629V30ZM203.579 16.98L205.489 16.386L201.579 16.98H203.579ZM203.579 30V32H205.579V30H203.579ZM197.519 30H195.519V32H197.519V30ZM197.519 9V7H195.519V9H197.519ZM205.469 9L207.37 8.37764L206.919 7H205.469V9ZM209.909 22.56L208.008 23.1824L209.903 28.9677L211.809 23.1861L209.909 22.56ZM214.379 9V7H212.932L212.48 8.37385L214.379 9ZM222.119 9H224.119V7H222.119V9ZM222.119 28H216.059V32H222.119V28ZM218.059 30V16.98H214.059V30H218.059ZM214.14 16.4183L210.33 29.4383L214.169 30.5617L217.979 17.5417L214.14 16.4183ZM212.249 28H207.629V32H212.249V28ZM209.539 29.406L205.489 16.386L201.669 17.574L205.719 30.594L209.539 29.406ZM201.579 16.98V30H205.579V16.98H201.579ZM203.579 28H197.519V32H203.579V28ZM199.519 30V9H195.519V30H199.519ZM197.519 11H205.469V7H197.519V11ZM203.568 9.62235L208.008 23.1824L211.81 21.9376L207.37 8.37764L203.568 9.62235ZM211.809 23.1861L216.279 9.62615L212.48 8.37385L208.01 21.9339L211.809 23.1861ZM214.379 11H222.119V7H214.379V11ZM220.119 9V30H224.119V9H220.119ZM230.081 29.67L229.271 31.4987L229.286 31.5056L229.302 31.5123L230.081 29.67ZM226.511 27.21L225.054 28.5807L225.061 28.5882L225.068 28.5957L226.511 27.21ZM224.291 23.67L222.417 24.3692L222.421 24.3814L222.426 24.3935L224.291 23.67ZM224.291 15.33L222.426 14.6065L222.421 14.6186L222.417 14.6308L224.291 15.33ZM226.511 11.79L225.068 10.4043L225.061 10.4118L225.054 10.4193L226.511 11.79ZM230.081 9.36L230.868 11.1983L230.881 11.1929L230.081 9.36ZM239.741 9.36L238.94 11.1929L238.951 11.1977L238.962 11.2023L239.741 9.36ZM243.311 11.79L241.854 13.1607L241.861 13.1682L241.868 13.1757L243.311 11.79ZM245.531 15.33L243.657 16.0292L243.661 16.0414L243.666 16.0535L245.531 15.33ZM245.531 23.67L243.666 22.9465L243.661 22.9586L243.657 22.9708L245.531 23.67ZM243.311 27.21L241.868 25.8243L241.861 25.8318L241.854 25.8393L243.311 27.21ZM239.741 29.67L240.519 31.5123L240.53 31.5077L240.541 31.5029L239.741 29.67ZM237.041 24.42L236.192 22.6091L236.181 22.6143L236.169 22.6197L237.041 24.42ZM238.631 23.25L237.129 21.9287L237.125 21.933L238.631 23.25ZM239.621 21.54L237.741 20.8565L237.735 20.8731L237.729 20.8898L239.621 21.54ZM239.621 17.49L237.723 18.1225L237.735 18.1576L237.748 18.1922L239.621 17.49ZM238.631 15.78L237.099 17.0664L237.127 17.0995L237.156 17.1314L238.631 15.78ZM237.041 14.58L236.169 16.3803L236.181 16.3857L236.192 16.3909L237.041 14.58ZM232.751 14.58L231.902 12.7691L231.891 12.7743L231.879 12.7797L232.751 14.58ZM231.161 15.78L229.659 14.4587L229.655 14.463L231.161 15.78ZM230.171 17.49L228.291 16.8065L228.285 16.8231L228.279 16.8398L230.171 17.49ZM230.171 21.54L228.273 22.1725L228.285 22.2076L228.298 22.2422L230.171 21.54ZM231.161 23.25L229.629 24.5364L229.657 24.5695L229.686 24.6014L231.161 23.25ZM232.751 24.42L231.879 26.2203L231.891 26.2257L231.902 26.2309L232.751 24.42ZM234.911 28.57C233.334 28.57 231.995 28.3077 230.859 27.8277L229.302 31.5123C231.006 32.2323 232.887 32.57 234.911 32.57V28.57ZM230.89 27.8413C229.708 27.3178 228.738 26.642 227.953 25.8243L225.068 28.5957C226.243 29.818 227.653 30.7822 229.271 31.4987L230.89 27.8413ZM227.967 25.8393C227.188 25.0117 226.584 24.0529 226.155 22.9465L222.426 24.3935C223.037 25.9671 223.913 27.3683 225.054 28.5807L227.967 25.8393ZM226.164 22.9708C225.748 21.856 225.541 20.7029 225.541 19.5H221.541C221.541 21.1771 221.833 22.804 222.417 24.3692L226.164 22.9708ZM225.541 19.5C225.541 18.2971 225.748 17.144 226.164 16.0292L222.417 14.6308C221.833 16.196 221.541 17.8229 221.541 19.5H225.541ZM226.155 16.0535C226.584 14.9471 227.188 13.9883 227.967 13.1607L225.054 10.4193C223.913 11.6317 223.037 13.0329 222.426 14.6065L226.155 16.0535ZM227.953 13.1757C228.733 12.3633 229.695 11.701 230.868 11.1983L229.293 7.52171C227.666 8.21904 226.248 9.17671 225.068 10.4043L227.953 13.1757ZM230.881 11.1929C232.011 10.6995 233.342 10.43 234.911 10.43V6.43C232.879 6.43 230.99 6.7805 229.28 7.52709L230.881 11.1929ZM234.911 10.43C236.479 10.43 237.81 10.6995 238.94 11.1929L240.541 7.52709C238.831 6.7805 236.942 6.43 234.911 6.43V10.43ZM238.962 11.2023C240.152 11.705 241.103 12.3629 241.854 13.1607L244.767 10.4193C243.598 9.17706 242.169 8.21505 240.519 7.51771L238.962 11.2023ZM241.868 13.1757C242.657 13.9965 243.251 14.9421 243.657 16.0292L247.404 14.6308C246.81 13.0379 245.924 11.6235 244.753 10.4043L241.868 13.1757ZM243.666 16.0535C244.096 17.1624 244.311 18.307 244.311 19.5H248.311C248.311 17.813 248.005 16.1776 247.395 14.6065L243.666 16.0535ZM244.311 19.5C244.311 20.693 244.096 21.8376 243.666 22.9465L247.395 24.3935C248.005 22.8224 248.311 21.187 248.311 19.5H244.311ZM243.657 22.9708C243.251 24.0579 242.657 25.0035 241.868 25.8243L244.753 28.5957C245.924 27.3765 246.81 25.9621 247.404 24.3692L243.657 22.9708ZM241.854 25.8393C241.098 26.6425 240.139 27.3137 238.94 27.8371L240.541 31.5029C242.182 30.7863 243.603 29.8175 244.767 28.5807L241.854 25.8393ZM238.962 27.8277C237.826 28.3077 236.487 28.57 234.911 28.57V32.57C236.934 32.57 238.815 32.2323 240.519 31.5123L238.962 27.8277ZM234.911 26.87C235.964 26.87 236.979 26.6714 237.912 26.2203L236.169 22.6197C235.862 22.7686 235.457 22.87 234.911 22.87V26.87ZM237.889 26.2309C238.753 25.8262 239.515 25.2768 240.136 24.567L237.125 21.933C236.906 22.1832 236.608 22.4138 236.192 22.6091L237.889 26.2309ZM240.132 24.5713C240.747 23.872 241.208 23.0731 241.512 22.1902L237.729 20.8898C237.593 21.2869 237.394 21.628 237.129 21.9287L240.132 24.5713ZM241.5 22.2235C241.82 21.3451 241.981 20.4339 241.981 19.5H237.981C237.981 19.9661 237.902 20.4149 237.741 20.8565L241.5 22.2235ZM241.981 19.5C241.981 18.5661 241.819 17.6578 241.493 16.7878L237.748 18.1922C237.902 18.6022 237.981 19.0339 237.981 19.5H241.981ZM241.518 16.8575C241.215 15.9494 240.748 15.1298 240.105 14.4286L237.156 17.1314C237.393 17.3902 237.586 17.7106 237.723 18.1225L241.518 16.8575ZM240.162 14.4936C239.54 13.7534 238.77 13.182 237.889 12.7691L236.192 16.3909C236.591 16.578 236.881 16.8066 237.099 17.0664L240.162 14.4936ZM237.912 12.7797C236.979 12.3286 235.964 12.13 234.911 12.13V16.13C235.457 16.13 235.862 16.2314 236.169 16.3803L237.912 12.7797ZM234.911 12.13C233.856 12.13 232.84 12.3291 231.902 12.7691L233.599 16.3909C233.941 16.2309 234.365 16.13 234.911 16.13V12.13ZM231.879 12.7797C231.028 13.1917 230.281 13.7518 229.659 14.4587L232.662 17.1013C232.92 16.8082 233.233 16.5683 233.622 16.3803L231.879 12.7797ZM229.655 14.463C229.057 15.1471 228.607 15.9375 228.291 16.8065L232.05 18.1735C232.214 17.7225 232.424 17.3729 232.666 17.097L229.655 14.463ZM228.279 16.8398C227.985 17.6962 227.841 18.5865 227.841 19.5H231.841C231.841 19.0135 231.916 18.5638 232.062 18.1402L228.279 16.8398ZM227.841 19.5C227.841 20.4136 227.985 21.3072 228.273 22.1725L232.068 20.9075C231.916 20.4528 231.841 19.9864 231.841 19.5H227.841ZM228.298 22.2422C228.614 23.0849 229.056 23.8544 229.629 24.5364L232.692 21.9636C232.425 21.6456 232.207 21.2751 232.043 20.8378L228.298 22.2422ZM229.686 24.6014C230.307 25.2785 231.045 25.8166 231.879 26.2203L233.622 22.6197C233.216 22.4234 232.894 22.1815 232.635 21.8986L229.686 24.6014ZM231.902 26.2309C232.84 26.6709 233.856 26.87 234.911 26.87V22.87C234.365 22.87 233.941 22.7691 233.599 22.6091L231.902 26.2309ZM247.707 9V7H245.707V9H247.707ZM254.007 9H256.007V7H254.007V9ZM254.007 30V32H256.007V30H254.007ZM247.707 30H245.707V32H247.707V30ZM247.707 11H254.007V7H247.707V11ZM252.007 9V30H256.007V9H252.007ZM254.007 28H247.707V32H254.007V28ZM249.707 30V9H245.707V30H249.707Z" fill="#FDF7EC"/>
</g>
<path d="M36 6C32.2893 6 28.7292 7.4459 26.1031 10.0219C23.4768 12.5982 22 16.0938 22 19.7404C22 24.405 25.0536 29.2489 28.0307 32.8837C30.9635 36.4642 33.9766 39.0538 34.4372 39.4063L34.4853 39.447C35.3578 40.1843 36.6422 40.1843 37.5147 39.447L37.5628 39.4063C38.0234 39.0539 41.0365 36.4642 43.9693 32.8837C46.9464 29.2489 50 24.405 50 19.7404C50 16.0938 48.5232 12.5982 45.8969 10.0219C43.2708 7.4459 39.7107 6 36 6ZM36 25.4554C34.8447 25.4554 33.7158 25.1192 32.7564 24.4903C31.797 23.8615 31.0503 22.9685 30.6097 21.925C30.1692 20.8816 30.054 19.734 30.2785 18.6268C30.503 17.5197 31.0574 16.5016 31.8726 15.7019C32.6879 14.9021 33.7276 14.3567 34.8606 14.1355C35.9936 13.9145 37.1679 14.028 38.2347 14.4615C39.3014 14.8949 40.2121 15.6285 40.8522 16.5682C41.4922 17.5078 41.8333 18.6117 41.8333 19.7404C41.8333 21.2537 41.2205 22.7065 40.1274 23.7789C39.034 24.8514 37.5495 25.4554 36 25.4554Z" fill="#FFA800" stroke="#FDF7EC" stroke-width="2"/>
</g>
<defs>
<clipPath id="clip0_19256_43701">
<rect width="256" height="41" fill="white"/>
</clipPath>
</defs>
</svg>
