<svg width="259" height="38" viewBox="0 0 259 38" fill="none" xmlns="http://www.w3.org/2000/svg">
<g clip-path="url(#clip0_19256_49891)">
<path d="M12.1163 27.0696C9.95099 27.0696 8.09365 26.6776 6.54432 25.8936C4.99499 25.091 3.80965 23.971 2.98832 22.5336C2.16699 21.0776 1.75632 19.3696 1.75632 17.4096C1.75632 15.4496 2.16699 13.751 2.98832 12.3136C3.80965 10.8576 4.99499 9.73766 6.54432 8.95366C8.09365 8.15099 9.95099 7.74966 12.1163 7.74966C14.2257 7.74966 16.027 8.06699 17.5203 8.70166C19.0323 9.33632 20.1897 10.251 20.9923 11.4456C21.795 12.6403 22.1963 14.0776 22.1963 15.7576V16.2336H16.3163V15.7576C16.3163 14.6936 16.0177 13.9376 15.4203 13.4896C14.823 13.023 13.7497 12.7896 12.2003 12.7896C10.931 12.7896 9.94165 12.9203 9.23232 13.1816C8.54165 13.4243 8.05632 13.8816 7.77632 14.5536C7.49632 15.207 7.35632 16.159 7.35632 17.4096C7.35632 18.6416 7.49632 19.5936 7.77632 20.2656C8.05632 20.9376 8.54165 21.4043 9.23232 21.6656C9.94165 21.9083 10.931 22.0296 12.2003 22.0296C13.7497 22.0296 14.823 21.8056 15.4203 21.3576C16.0177 20.891 16.3163 20.1256 16.3163 19.0616V18.5856H22.1963V19.0616C22.1963 20.723 21.795 22.1603 20.9923 23.3736C20.1897 24.5683 19.0323 25.483 17.5203 26.1176C16.027 26.7523 14.2257 27.0696 12.1163 27.0696ZM33.0192 27.0696C30.8912 27.0696 29.1085 26.6683 27.6712 25.8656C26.2339 25.0443 25.1419 23.915 24.3952 22.4776C23.6672 21.0216 23.3032 19.3323 23.3032 17.4096C23.3032 15.487 23.6672 13.807 24.3952 12.3696C25.1419 10.9136 26.2339 9.78432 27.6712 8.98166C29.1085 8.16032 30.8912 7.74966 33.0192 7.74966C35.1472 7.74966 36.9299 8.16032 38.3672 8.98166C39.8045 9.78432 40.8872 10.9136 41.6152 12.3696C42.3432 13.807 42.7072 15.487 42.7072 17.4096C42.7072 19.3323 42.3432 21.0216 41.6152 22.4776C40.8872 23.915 39.8045 25.0443 38.3672 25.8656C36.9299 26.6683 35.1472 27.0696 33.0192 27.0696ZM33.0192 21.9456C34.0832 21.9456 34.9045 21.815 35.4832 21.5536C36.0805 21.2736 36.4912 20.807 36.7152 20.1536C36.9392 19.4816 37.0512 18.567 37.0512 17.4096C37.0512 16.2523 36.9392 15.347 36.7152 14.6936C36.4912 14.0216 36.0805 13.555 35.4832 13.2936C34.9045 13.0136 34.0832 12.8736 33.0192 12.8736C31.9552 12.8736 31.1245 13.0136 30.5272 13.2936C29.9485 13.555 29.5379 14.0216 29.2952 14.6936C29.0712 15.347 28.9592 16.2523 28.9592 17.4096C28.9592 18.567 29.0712 19.4816 29.2952 20.1536C29.5379 20.807 29.9485 21.2736 30.5272 21.5536C31.1245 21.815 31.9552 21.9456 33.0192 21.9456ZM49.3824 26.7896H44.1184V8.02966H51.2584L54.7024 15.8136L56.5504 20.6576H56.9144L58.6784 15.8136L61.9544 8.02966H69.0944V26.7896H63.8304V19.0336L64.0264 15.8976H63.6624L62.5984 19.0336L59.7984 25.6696H53.4144L50.6144 19.0336L49.5504 15.8976H49.1864L49.3824 19.0336V26.7896ZM76.0425 26.7896H70.7785V8.02966H77.9185L81.3625 15.8136L83.2105 20.6576H83.5745L85.3385 15.8136L88.6145 8.02966H95.7545V26.7896H90.4905V19.0336L90.6865 15.8976H90.3225L89.2585 19.0336L86.4585 25.6696H80.0745L77.2745 19.0336L76.2105 15.8976H75.8465L76.0425 19.0336V26.7896ZM102.703 26.7896H97.4387V8.02966H102.703V26.7896ZM114.099 26.7896H98.8667V22.0576H114.099V26.7896ZM113.679 19.7056H98.8667V15.0016H113.679V19.7056ZM114.099 12.7616H98.8667V8.02966H114.099V12.7616ZM120.859 26.7896H115.595V8.02966H126.543C128.204 8.02966 129.595 8.25366 130.715 8.70166C131.835 9.14966 132.675 9.80299 133.235 10.6616C133.814 11.5016 134.103 12.5376 134.103 13.7696C134.103 14.759 133.926 15.6176 133.571 16.3456C133.235 17.055 132.694 17.6336 131.947 18.0816C131.2 18.511 130.23 18.8003 129.035 18.9496V19.2296C130.006 19.4723 130.696 19.8363 131.107 20.3216C131.536 20.7883 131.928 21.3763 132.283 22.0856L134.607 26.7896H128.531L126.291 22.1976C126.067 21.731 125.834 21.367 125.591 21.1056C125.348 20.8443 125.031 20.667 124.639 20.5736C124.247 20.4616 123.706 20.4056 123.015 20.4056H120.859V26.7896ZM120.859 12.7616V16.4856H126.487C127.252 16.4856 127.794 16.3736 128.111 16.1496C128.428 15.9256 128.587 15.4123 128.587 14.6096C128.587 13.863 128.428 13.3683 128.111 13.1256C127.794 12.883 127.252 12.7616 126.487 12.7616H120.859ZM145.526 27.0696C143.361 27.0696 141.504 26.6776 139.954 25.8936C138.405 25.091 137.22 23.971 136.398 22.5336C135.577 21.0776 135.166 19.3696 135.166 17.4096C135.166 15.4496 135.577 13.751 136.398 12.3136C137.22 10.8576 138.405 9.73766 139.954 8.95366C141.504 8.15099 143.361 7.74966 145.526 7.74966C147.636 7.74966 149.437 8.06699 150.93 8.70166C152.442 9.33632 153.6 10.251 154.402 11.4456C155.205 12.6403 155.606 14.0776 155.606 15.7576V16.2336H149.726V15.7576C149.726 14.6936 149.428 13.9376 148.83 13.4896C148.233 13.023 147.16 12.7896 145.61 12.7896C144.341 12.7896 143.352 12.9203 142.642 13.1816C141.952 13.4243 141.466 13.8816 141.186 14.5536C140.906 15.207 140.766 16.159 140.766 17.4096C140.766 18.6416 140.906 19.5936 141.186 20.2656C141.466 20.9376 141.952 21.4043 142.642 21.6656C143.352 21.9083 144.341 22.0296 145.61 22.0296C147.16 22.0296 148.233 21.8056 148.83 21.3576C149.428 20.891 149.726 20.1256 149.726 19.0616V18.5856H155.606V19.0616C155.606 20.723 155.205 22.1603 154.402 23.3736C153.6 24.5683 152.442 25.483 150.93 26.1176C149.437 26.7523 147.636 27.0696 145.526 27.0696ZM162.257 26.7896H156.993V8.02966H162.257V26.7896ZM173.653 26.7896H158.421V22.0576H173.653V26.7896ZM173.233 19.7056H158.421V15.0016H173.233V19.7056ZM173.653 12.7616H158.421V8.02966H173.653V12.7616ZM184.324 26.7896H179.06V8.02966H184.324V26.7896ZM195.72 26.7896H180.488V22.0576H195.72V26.7896ZM195.3 19.7056H180.488V15.0016H195.3V19.7056ZM195.72 12.7616H180.488V8.02966H195.72V12.7616ZM190.176 6.34966H184.52L188.244 2.59766H195.832L190.176 6.34966ZM202.48 26.7896H197.216V8.02966H204.356L207.8 15.8136L209.648 20.6576H210.012L211.776 15.8136L215.052 8.02966H222.192V26.7896H216.928V19.0336L217.124 15.8976H216.76L215.696 19.0336L212.896 25.6696H206.512L203.712 19.0336L202.648 15.8976H202.284L202.48 19.0336V26.7896ZM256.511 26.7896H251.247V8.02966H256.511V26.7896Z" fill="#FF5935"/>
<mask id="mask0_19256_49891" style="mask-type:luminance" maskUnits="userSpaceOnUse" x="-1" y="-1" width="260" height="31">
<path d="M259 -0.210449H-1V29.7896H259V-0.210449Z" fill="white"/>
<path d="M12.1163 27.0696C9.95099 27.0696 8.09365 26.6776 6.54432 25.8936C4.99499 25.091 3.80965 23.971 2.98832 22.5336C2.16699 21.0776 1.75632 19.3696 1.75632 17.4096C1.75632 15.4496 2.16699 13.751 2.98832 12.3136C3.80965 10.8576 4.99499 9.73766 6.54432 8.95366C8.09365 8.15099 9.95099 7.74966 12.1163 7.74966C14.2257 7.74966 16.027 8.06699 17.5203 8.70166C19.0323 9.33632 20.1897 10.251 20.9923 11.4456C21.795 12.6403 22.1963 14.0776 22.1963 15.7576V16.2336H16.3163V15.7576C16.3163 14.6936 16.0177 13.9376 15.4203 13.4896C14.823 13.023 13.7497 12.7896 12.2003 12.7896C10.931 12.7896 9.94165 12.9203 9.23232 13.1816C8.54165 13.4243 8.05632 13.8816 7.77632 14.5536C7.49632 15.207 7.35632 16.159 7.35632 17.4096C7.35632 18.6416 7.49632 19.5936 7.77632 20.2656C8.05632 20.9376 8.54165 21.4043 9.23232 21.6656C9.94165 21.9083 10.931 22.0296 12.2003 22.0296C13.7497 22.0296 14.823 21.8056 15.4203 21.3576C16.0177 20.891 16.3163 20.1256 16.3163 19.0616V18.5856H22.1963V19.0616C22.1963 20.723 21.795 22.1603 20.9923 23.3736C20.1897 24.5683 19.0323 25.483 17.5203 26.1176C16.027 26.7523 14.2257 27.0696 12.1163 27.0696ZM33.0192 27.0696C30.8912 27.0696 29.1085 26.6683 27.6712 25.8656C26.2339 25.0443 25.1419 23.915 24.3952 22.4776C23.6672 21.0216 23.3032 19.3323 23.3032 17.4096C23.3032 15.487 23.6672 13.807 24.3952 12.3696C25.1419 10.9136 26.2339 9.78432 27.6712 8.98166C29.1085 8.16032 30.8912 7.74966 33.0192 7.74966C35.1472 7.74966 36.9299 8.16032 38.3672 8.98166C39.8045 9.78432 40.8872 10.9136 41.6152 12.3696C42.3432 13.807 42.7072 15.487 42.7072 17.4096C42.7072 19.3323 42.3432 21.0216 41.6152 22.4776C40.8872 23.915 39.8045 25.0443 38.3672 25.8656C36.9299 26.6683 35.1472 27.0696 33.0192 27.0696ZM33.0192 21.9456C34.0832 21.9456 34.9045 21.815 35.4832 21.5536C36.0805 21.2736 36.4912 20.807 36.7152 20.1536C36.9392 19.4816 37.0512 18.567 37.0512 17.4096C37.0512 16.2523 36.9392 15.347 36.7152 14.6936C36.4912 14.0216 36.0805 13.555 35.4832 13.2936C34.9045 13.0136 34.0832 12.8736 33.0192 12.8736C31.9552 12.8736 31.1245 13.0136 30.5272 13.2936C29.9485 13.555 29.5379 14.0216 29.2952 14.6936C29.0712 15.347 28.9592 16.2523 28.9592 17.4096C28.9592 18.567 29.0712 19.4816 29.2952 20.1536C29.5379 20.807 29.9485 21.2736 30.5272 21.5536C31.1245 21.815 31.9552 21.9456 33.0192 21.9456ZM49.3824 26.7896H44.1184V8.02966H51.2584L54.7024 15.8136L56.5504 20.6576H56.9144L58.6784 15.8136L61.9544 8.02966H69.0944V26.7896H63.8304V19.0336L64.0264 15.8976H63.6624L62.5984 19.0336L59.7984 25.6696H53.4144L50.6144 19.0336L49.5504 15.8976H49.1864L49.3824 19.0336V26.7896ZM76.0425 26.7896H70.7785V8.02966H77.9185L81.3625 15.8136L83.2105 20.6576H83.5745L85.3385 15.8136L88.6145 8.02966H95.7545V26.7896H90.4905V19.0336L90.6865 15.8976H90.3225L89.2585 19.0336L86.4585 25.6696H80.0745L77.2745 19.0336L76.2105 15.8976H75.8465L76.0425 19.0336V26.7896ZM102.703 26.7896H97.4387V8.02966H102.703V26.7896ZM114.099 26.7896H98.8667V22.0576H114.099V26.7896ZM113.679 19.7056H98.8667V15.0016H113.679V19.7056ZM114.099 12.7616H98.8667V8.02966H114.099V12.7616ZM120.859 26.7896H115.595V8.02966H126.543C128.204 8.02966 129.595 8.25366 130.715 8.70166C131.835 9.14966 132.675 9.80299 133.235 10.6616C133.814 11.5016 134.103 12.5376 134.103 13.7696C134.103 14.759 133.926 15.6176 133.571 16.3456C133.235 17.055 132.694 17.6336 131.947 18.0816C131.2 18.511 130.23 18.8003 129.035 18.9496V19.2296C130.006 19.4723 130.696 19.8363 131.107 20.3216C131.536 20.7883 131.928 21.3763 132.283 22.0856L134.607 26.7896H128.531L126.291 22.1976C126.067 21.731 125.834 21.367 125.591 21.1056C125.348 20.8443 125.031 20.667 124.639 20.5736C124.247 20.4616 123.706 20.4056 123.015 20.4056H120.859V26.7896ZM120.859 12.7616V16.4856H126.487C127.252 16.4856 127.794 16.3736 128.111 16.1496C128.428 15.9256 128.587 15.4123 128.587 14.6096C128.587 13.863 128.428 13.3683 128.111 13.1256C127.794 12.883 127.252 12.7616 126.487 12.7616H120.859ZM145.526 27.0696C143.361 27.0696 141.504 26.6776 139.954 25.8936C138.405 25.091 137.22 23.971 136.398 22.5336C135.577 21.0776 135.166 19.3696 135.166 17.4096C135.166 15.4496 135.577 13.751 136.398 12.3136C137.22 10.8576 138.405 9.73766 139.954 8.95366C141.504 8.15099 143.361 7.74966 145.526 7.74966C147.636 7.74966 149.437 8.06699 150.93 8.70166C152.442 9.33632 153.6 10.251 154.402 11.4456C155.205 12.6403 155.606 14.0776 155.606 15.7576V16.2336H149.726V15.7576C149.726 14.6936 149.428 13.9376 148.83 13.4896C148.233 13.023 147.16 12.7896 145.61 12.7896C144.341 12.7896 143.352 12.9203 142.642 13.1816C141.952 13.4243 141.466 13.8816 141.186 14.5536C140.906 15.207 140.766 16.159 140.766 17.4096C140.766 18.6416 140.906 19.5936 141.186 20.2656C141.466 20.9376 141.952 21.4043 142.642 21.6656C143.352 21.9083 144.341 22.0296 145.61 22.0296C147.16 22.0296 148.233 21.8056 148.83 21.3576C149.428 20.891 149.726 20.1256 149.726 19.0616V18.5856H155.606V19.0616C155.606 20.723 155.205 22.1603 154.402 23.3736C153.6 24.5683 152.442 25.483 150.93 26.1176C149.437 26.7523 147.636 27.0696 145.526 27.0696ZM162.257 26.7896H156.993V8.02966H162.257V26.7896ZM173.653 26.7896H158.421V22.0576H173.653V26.7896ZM173.233 19.7056H158.421V15.0016H173.233V19.7056ZM173.653 12.7616H158.421V8.02966H173.653V12.7616ZM184.324 26.7896H179.06V8.02966H184.324V26.7896ZM195.72 26.7896H180.488V22.0576H195.72V26.7896ZM195.3 19.7056H180.488V15.0016H195.3V19.7056ZM195.72 12.7616H180.488V8.02966H195.72V12.7616ZM190.176 6.34966H184.52L188.244 2.59766H195.832L190.176 6.34966ZM202.48 26.7896H197.216V8.02966H204.356L207.8 15.8136L209.648 20.6576H210.012L211.776 15.8136L215.052 8.02966H222.192V26.7896H216.928V19.0336L217.124 15.8976H216.76L215.696 19.0336L212.896 25.6696H206.512L203.712 19.0336L202.648 15.8976H202.284L202.48 19.0336V26.7896ZM256.511 26.7896H251.247V8.02966H256.511V26.7896Z" fill="black"/>
</mask>
<g mask="url(#mask0_19256_49891)">
<path d="M6.54432 25.8936L5.62431 27.6695L5.63279 27.6739L5.6413 27.6782L6.54432 25.8936ZM2.98832 22.5336L1.24634 23.5163L1.25183 23.5259L2.98832 22.5336ZM2.98832 12.3136L4.72483 13.3059L4.73028 13.2963L2.98832 12.3136ZM6.54432 8.95366L7.44734 10.7382L7.45585 10.7339L7.46433 10.7295L6.54432 8.95366ZM17.5203 8.70166L16.738 10.5423L16.7462 10.5458L17.5203 8.70166ZM22.1963 16.2336V18.2336H24.1963V16.2336H22.1963ZM16.3163 16.2336H14.3163V18.2336H16.3163V16.2336ZM15.4203 13.4896L14.189 15.0657L14.2046 15.0778L14.2203 15.0896L15.4203 13.4896ZM9.23232 13.1816L9.89529 15.0686L9.90955 15.0635L9.92373 15.0583L9.23232 13.1816ZM7.77632 14.5536L9.61461 15.3415L9.61859 15.3322L9.62247 15.3229L7.77632 14.5536ZM9.23232 21.6656L8.52454 23.5362L8.55457 23.5476L8.58494 23.558L9.23232 21.6656ZM15.4203 21.3576L16.6203 22.9576L16.6361 22.9458L16.6516 22.9337L15.4203 21.3576ZM16.3163 18.5856V16.5856H14.3163V18.5856H16.3163ZM22.1963 18.5856H24.1963V16.5856H22.1963V18.5856ZM20.9923 23.3736L22.6524 24.489L22.6564 24.4831L22.6604 24.4771L20.9923 23.3736ZM17.5203 26.1176L16.7462 24.2735L16.738 24.277L17.5203 26.1176ZM12.1163 25.0696C10.1889 25.0696 8.65611 24.7208 7.44734 24.1091L5.6413 27.6782C7.53119 28.6345 9.71309 29.0696 12.1163 29.0696V25.0696ZM7.46433 24.1178C6.2375 23.4822 5.34452 22.6259 4.72481 21.5414L1.25183 23.5259C2.27478 25.3161 3.75247 26.6997 5.62431 27.6695L7.46433 24.1178ZM4.73028 21.551C4.10522 20.4429 3.75632 19.0851 3.75632 17.4096H-0.243679C-0.243679 19.6542 0.228736 21.7123 1.24634 23.5163L4.73028 21.551ZM3.75632 17.4096C3.75632 15.7334 4.1055 14.3897 4.72483 13.3059L1.25183 11.3214C0.228493 13.1122 -0.243679 15.1659 -0.243679 17.4096H3.75632ZM4.73028 13.2963C5.34956 12.1985 6.23631 11.351 7.44734 10.7382L5.6413 7.16912C3.75366 8.12431 2.26975 9.51683 1.24636 11.331L4.73028 13.2963ZM7.46433 10.7295C8.66897 10.1054 10.1954 9.74966 12.1163 9.74966V5.74966C9.70654 5.74966 7.51834 6.19658 5.62431 7.17782L7.46433 10.7295ZM12.1163 9.74966C14.0338 9.74966 15.5543 10.0392 16.738 10.5423L18.3026 6.86099C16.4997 6.09476 14.4175 5.74966 12.1163 5.74966V9.74966ZM16.7462 10.5458C17.9497 11.0509 18.7767 11.7341 19.3322 12.561L22.6524 10.3303C21.6026 8.76781 20.1149 7.62169 18.2944 6.85753L16.7462 10.5458ZM19.3322 12.561C19.8782 13.3736 20.1963 14.4069 20.1963 15.7576H24.1963C24.1963 13.7484 23.7118 11.907 22.6524 10.3303L19.3322 12.561ZM20.1963 15.7576V16.2336H24.1963V15.7576H20.1963ZM22.1963 14.2336H16.3163V18.2336H22.1963V14.2336ZM18.3163 16.2336V15.7576H14.3163V16.2336H18.3163ZM18.3163 15.7576C18.3163 14.3471 17.9113 12.8578 16.6203 11.8896L14.2203 15.0896C14.1972 15.0723 14.2062 15.0618 14.2322 15.1275C14.2654 15.2115 14.3163 15.4035 14.3163 15.7576H18.3163ZM16.6516 11.9136C15.4865 11.0034 13.8086 10.7896 12.2003 10.7896V14.7896C12.8854 14.7896 13.3892 14.8422 13.7425 14.919C14.1074 14.9983 14.2093 15.0815 14.189 15.0657L16.6516 11.9136ZM12.2003 10.7896C10.8329 10.7896 9.57189 10.9251 8.54091 11.3049L9.92373 15.0583C10.3114 14.9155 11.0291 14.7896 12.2003 14.7896V10.7896ZM8.56935 11.2947C7.34708 11.7242 6.42966 12.5856 5.93017 13.7844L9.62247 15.3229C9.68298 15.1777 9.73622 15.1244 9.89529 15.0686L8.56935 11.2947ZM5.93803 13.7658C5.49917 14.7898 5.35632 16.0628 5.35632 17.4096H9.35632C9.35632 16.2552 9.49347 15.6241 9.61461 15.3415L5.93803 13.7658ZM5.35632 17.4096C5.35632 18.7481 5.50179 20.0068 5.93017 21.0349L9.62247 19.4964C9.49085 19.1805 9.35632 18.5352 9.35632 17.4096H5.35632ZM5.93017 21.0349C6.42531 22.2232 7.3274 23.0832 8.52454 23.5362L9.9401 19.7951C9.75591 19.7254 9.68733 19.6521 9.62247 19.4964L5.93017 21.0349ZM8.58494 23.558C9.59799 23.9045 10.8412 24.0296 12.2003 24.0296V20.0296C11.0208 20.0296 10.2853 19.9121 9.8797 19.7733L8.58494 23.558ZM12.2003 24.0296C13.8004 24.0296 15.4619 23.8265 16.6203 22.9576L14.2203 19.7576C14.2395 19.7433 14.1321 19.8259 13.7587 19.9038C13.3989 19.9789 12.8891 20.0296 12.2003 20.0296V24.0296ZM16.6516 22.9337C17.909 21.9514 18.3163 20.4788 18.3163 19.0616H14.3163C14.3163 19.4147 14.2657 19.6129 14.2292 19.7066C14.2119 19.7507 14.1985 19.7703 14.1948 19.7753C14.1918 19.7795 14.1909 19.7801 14.189 19.7816L16.6516 22.9337ZM18.3163 19.0616V18.5856H14.3163V19.0616H18.3163ZM16.3163 20.5856H22.1963V16.5856H16.3163V20.5856ZM20.1963 18.5856V19.0616H24.1963V18.5856H20.1963ZM20.1963 19.0616C20.1963 20.3879 19.8808 21.4289 19.3243 22.2702L22.6604 24.4771C23.7092 22.8917 24.1963 21.058 24.1963 19.0616H20.1963ZM19.3322 22.2583C18.7767 23.0851 17.9497 23.7683 16.7462 24.2735L18.2944 27.9618C20.1149 27.1976 21.6026 26.0515 22.6524 24.489L19.3322 22.2583ZM16.738 24.277C15.5543 24.7801 14.0338 25.0696 12.1163 25.0696V29.0696C14.4175 29.0696 16.4997 28.7245 18.3026 27.9583L16.738 24.277ZM27.6712 25.8656L26.6789 27.6021L26.6875 27.607L26.6961 27.6118L27.6712 25.8656ZM24.3952 22.4776L22.6063 23.3721L22.6133 23.3859L22.6204 23.3996L24.3952 22.4776ZM24.3952 12.3696L22.6155 11.457L22.611 11.466L24.3952 12.3696ZM27.6712 8.98166L28.6463 10.7278L28.6549 10.723L28.6635 10.7181L27.6712 8.98166ZM38.3672 8.98166L37.3749 10.7181L37.3835 10.723L37.3921 10.7278L38.3672 8.98166ZM41.6152 12.3696L39.8263 13.2641L39.831 13.2733L41.6152 12.3696ZM41.6152 22.4776L43.3994 23.3813L43.404 23.3721L41.6152 22.4776ZM38.3672 25.8656L39.3423 27.6118L39.3509 27.607L39.3595 27.6021L38.3672 25.8656ZM35.4832 21.5536L36.3064 23.3764L36.3193 23.3706L36.3321 23.3646L35.4832 21.5536ZM36.7152 20.1536L38.6071 20.8023L38.6099 20.7942L38.6126 20.7861L36.7152 20.1536ZM36.7152 14.6936L34.8178 15.3261L34.8205 15.3342L34.8233 15.3423L36.7152 14.6936ZM35.4832 13.2936L34.6121 15.094L34.6465 15.1106L34.6816 15.126L35.4832 13.2936ZM30.5272 13.2936L31.3504 15.1164L31.3633 15.1106L31.3761 15.1046L30.5272 13.2936ZM29.2952 14.6936L27.4141 14.0143L27.4086 14.0296L27.4033 14.045L29.2952 14.6936ZM29.2952 20.1536L27.3978 20.7861L27.4085 20.8182L27.4203 20.85L29.2952 20.1536ZM30.5272 21.5536L29.6561 23.354L29.6905 23.3706L29.7256 23.386L30.5272 21.5536ZM33.0192 25.0696C31.1352 25.0696 29.7108 24.7139 28.6463 24.1195L26.6961 27.6118C28.5062 28.6227 30.6472 29.0696 33.0192 29.0696V25.0696ZM28.6635 24.1292C27.552 23.494 26.7354 22.6441 26.17 21.5557L22.6204 23.3996C23.5483 25.1859 24.9157 26.5946 26.6789 27.6021L28.6635 24.1292ZM26.184 21.5832C25.6179 20.451 25.3032 19.0777 25.3032 17.4096H21.3032C21.3032 19.5869 21.7165 21.5923 22.6063 23.3721L26.184 21.5832ZM25.3032 17.4096C25.3032 15.7407 25.6182 14.3813 26.1794 13.2733L22.611 11.466C21.7162 13.2326 21.3032 15.2332 21.3032 17.4096H25.3032ZM26.1748 13.2823C26.7403 12.1797 27.5513 11.3393 28.6463 10.7278L26.6961 7.23549C24.9164 8.2293 23.5434 9.64762 22.6155 11.457L26.1748 13.2823ZM28.6635 10.7181C29.7242 10.112 31.1421 9.74966 33.0192 9.74966V5.74966C30.6403 5.74966 28.4929 6.20861 26.6789 7.24517L28.6635 10.7181ZM33.0192 9.74966C34.8963 9.74966 36.3142 10.112 37.3749 10.7181L39.3595 7.24517C37.5455 6.20861 35.3981 5.74966 33.0192 5.74966V9.74966ZM37.3921 10.7278C38.483 11.3371 39.2801 12.1715 39.8263 13.2641L43.404 11.4752C42.4943 9.65575 41.126 8.23157 39.3423 7.23549L37.3921 10.7278ZM39.831 13.2733C40.3922 14.3813 40.7072 15.7407 40.7072 17.4096H44.7072C44.7072 15.2332 44.2942 13.2326 43.3994 11.466L39.831 13.2733ZM40.7072 17.4096C40.7072 19.0777 40.3925 20.451 39.8263 21.5832L43.404 23.3721C44.2939 21.5923 44.7072 19.5869 44.7072 17.4096H40.7072ZM39.831 21.574C39.2849 22.6522 38.4824 23.4963 37.3749 24.1292L39.3595 27.6021C41.1267 26.5923 42.4895 25.1778 43.3994 23.3813L39.831 21.574ZM37.3921 24.1195C36.3276 24.7139 34.9032 25.0696 33.0192 25.0696V29.0696C35.3912 29.0696 37.5322 28.6227 39.3423 27.6118L37.3921 24.1195ZM33.0192 23.9456C34.2002 23.9456 35.351 23.8078 36.3064 23.3764L34.66 19.7309C34.458 19.8221 33.9661 19.9456 33.0192 19.9456V23.9456ZM36.3321 23.3646C37.4454 22.8427 38.2165 21.9414 38.6071 20.8023L34.8233 19.505C34.7659 19.6725 34.7156 19.7046 34.6343 19.7427L36.3321 23.3646ZM38.6126 20.7861C38.9339 19.8222 39.0512 18.6638 39.0512 17.4096H35.0512C35.0512 18.4701 34.9445 19.1411 34.8178 19.5212L38.6126 20.7861ZM39.0512 17.4096C39.0512 16.1596 38.9349 15.0011 38.6071 14.045L34.8233 15.3423C34.9435 15.6929 35.0512 16.345 35.0512 17.4096H39.0512ZM38.6126 14.0612C38.2269 12.9042 37.449 11.9706 36.2848 11.4613L34.6816 15.126C34.707 15.1371 34.7199 15.1457 34.7252 15.1495C34.7302 15.1531 34.7337 15.1563 34.7378 15.1609C34.7434 15.1673 34.7787 15.2086 34.8178 15.3261L38.6126 14.0612ZM36.3543 11.4933C35.3821 11.0229 34.2114 10.8736 33.0192 10.8736V14.8736C33.955 14.8736 34.4269 15.0044 34.6121 15.094L36.3543 11.4933ZM33.0192 10.8736C31.821 10.8736 30.6553 11.0248 29.6783 11.4827L31.3761 15.1046C31.5938 15.0025 32.0893 14.8736 33.0192 14.8736V10.8736ZM29.704 11.4709C28.5689 11.9835 27.8151 12.9037 27.4141 14.0143L31.1763 15.3729C31.225 15.238 31.2698 15.18 31.2866 15.1609C31.3 15.1457 31.3145 15.1326 31.3504 15.1164L29.704 11.4709ZM27.4033 14.045C27.0755 15.0011 26.9592 16.1596 26.9592 17.4096H30.9592C30.9592 16.345 31.0669 15.6929 31.1871 15.3423L27.4033 14.045ZM26.9592 17.4096C26.9592 18.6638 27.0765 19.8222 27.3978 20.7861L31.1926 19.5212C31.0659 19.1411 30.9592 18.4701 30.9592 17.4096H26.9592ZM27.4203 20.85C27.8261 21.9424 28.5718 22.8293 29.6561 23.354L31.3983 19.7533C31.3252 19.718 31.2496 19.6715 31.17 19.4573L27.4203 20.85ZM29.7256 23.386C30.6859 23.8061 31.8323 23.9456 33.0192 23.9456V19.9456C32.0781 19.9456 31.5632 19.8239 31.3288 19.7213L29.7256 23.386ZM49.3824 26.7896V28.7896H51.3824V26.7896H49.3824ZM44.1184 26.7896H42.1184V28.7896H44.1184V26.7896ZM44.1184 8.02966V6.02966H42.1184V8.02966H44.1184ZM51.2584 8.02966L53.0873 7.22043L52.5605 6.02966H51.2584V8.02966ZM54.7024 15.8136L56.571 15.1007L56.5524 15.0521L56.5313 15.0044L54.7024 15.8136ZM56.5504 20.6576L54.6817 21.3705L55.1728 22.6576H56.5504V20.6576ZM56.9144 20.6576V22.6576H58.3145L58.7936 21.342L56.9144 20.6576ZM58.6784 15.8136L56.835 15.0378L56.8159 15.0831L56.7991 15.1293L58.6784 15.8136ZM61.9544 8.02966V6.02966H60.6262L60.111 7.25384L61.9544 8.02966ZM69.0944 8.02966H71.0944V6.02966H69.0944V8.02966ZM69.0944 26.7896V28.7896H71.0944V26.7896H69.0944ZM63.8304 26.7896H61.8304V28.7896H63.8304V26.7896ZM63.8304 19.0336L61.8342 18.9089L61.8304 18.9712V19.0336H63.8304ZM64.0264 15.8976L66.0225 16.0224L66.1553 13.8976H64.0264V15.8976ZM63.6624 15.8976V13.8976H62.2289L61.7684 15.255L63.6624 15.8976ZM62.5984 19.0336L64.441 19.8111L64.4691 19.7446L64.4923 19.6762L62.5984 19.0336ZM59.7984 25.6696V27.6696H61.1252L61.641 26.4471L59.7984 25.6696ZM53.4144 25.6696L51.5717 26.4471L52.0875 27.6696H53.4144V25.6696ZM50.6144 19.0336L48.7204 19.6762L48.7436 19.7446L48.7717 19.8111L50.6144 19.0336ZM49.5504 15.8976L51.4443 15.255L50.9838 13.8976H49.5504V15.8976ZM49.1864 15.8976V13.8976H47.0574L47.1902 16.0224L49.1864 15.8976ZM49.3824 19.0336H51.3824V18.9712L51.3785 18.9089L49.3824 19.0336ZM49.3824 24.7896H44.1184V28.7896H49.3824V24.7896ZM46.1184 26.7896V8.02966H42.1184V26.7896H46.1184ZM44.1184 10.0297H51.2584V6.02966H44.1184V10.0297ZM49.4294 8.83888L52.8734 16.6229L56.5313 15.0044L53.0873 7.22043L49.4294 8.83888ZM52.8337 16.5265L54.6817 21.3705L58.419 19.9447L56.571 15.1007L52.8337 16.5265ZM56.5504 22.6576H56.9144V18.6576H56.5504V22.6576ZM58.7936 21.342L60.5576 16.498L56.7991 15.1293L55.0351 19.9733L58.7936 21.342ZM60.5217 16.5895L63.7977 8.80547L60.111 7.25384L56.835 15.0378L60.5217 16.5895ZM61.9544 10.0297H69.0944V6.02966H61.9544V10.0297ZM67.0944 8.02966V26.7896H71.0944V8.02966H67.0944ZM69.0944 24.7896H63.8304V28.7896H69.0944V24.7896ZM65.8304 26.7896V19.0336H61.8304V26.7896H65.8304ZM65.8265 19.1584L66.0225 16.0224L62.0302 15.7729L61.8342 18.9089L65.8265 19.1584ZM64.0264 13.8976H63.6624V17.8976H64.0264V13.8976ZM61.7684 15.255L60.7044 18.391L64.4923 19.6762L65.5563 16.5402L61.7684 15.255ZM60.7557 18.2561L57.9557 24.8921L61.641 26.4471L64.441 19.8111L60.7557 18.2561ZM59.7984 23.6696H53.4144V27.6696H59.7984V23.6696ZM55.257 24.8921L52.457 18.2561L48.7717 19.8111L51.5717 26.4471L55.257 24.8921ZM52.5083 18.391L51.4443 15.255L47.6564 16.5402L48.7204 19.6762L52.5083 18.391ZM49.5504 13.8976H49.1864V17.8976H49.5504V13.8976ZM47.1902 16.0224L47.3862 19.1584L51.3785 18.9089L51.1825 15.7729L47.1902 16.0224ZM47.3824 19.0336V26.7896H51.3824V19.0336H47.3824ZM76.0425 26.7896V28.7896H78.0425V26.7896H76.0425ZM70.7785 26.7896H68.7785V28.7896H70.7785V26.7896ZM70.7785 8.02966V6.02966H68.7785V8.02966H70.7785ZM77.9185 8.02966L79.7475 7.22043L79.2206 6.02966H77.9185V8.02966ZM81.3625 15.8136L83.2311 15.1007L83.2126 15.0521L83.1915 15.0044L81.3625 15.8136ZM83.2105 20.6576L81.3419 21.3705L81.8329 22.6576H83.2105V20.6576ZM83.5745 20.6576V22.6576H84.9747L85.4538 21.342L83.5745 20.6576ZM85.3385 15.8136L83.4951 15.0378L83.4761 15.0831L83.4592 15.1293L85.3385 15.8136ZM88.6145 8.02966V6.02966H87.2863L86.7711 7.25384L88.6145 8.02966ZM95.7545 8.02966H97.7545V6.02966H95.7545V8.02966ZM95.7545 26.7896V28.7896H97.7545V26.7896H95.7545ZM90.4905 26.7896H88.4905V28.7896H90.4905V26.7896ZM90.4905 19.0336L88.4944 18.9089L88.4905 18.9712V19.0336H90.4905ZM90.6865 15.8976L92.6826 16.0224L92.8154 13.8976H90.6865V15.8976ZM90.3225 15.8976V13.8976H88.8891L88.4286 15.255L90.3225 15.8976ZM89.2585 19.0336L91.1012 19.8111L91.1293 19.7446L91.1525 19.6762L89.2585 19.0336ZM86.4585 25.6696V27.6696H87.7854L88.3012 26.4471L86.4585 25.6696ZM80.0745 25.6696L78.2318 26.4471L78.7476 27.6696H80.0745V25.6696ZM77.2745 19.0336L75.3806 19.6762L75.4038 19.7446L75.4318 19.8111L77.2745 19.0336ZM76.2105 15.8976L78.1045 15.255L77.6439 13.8976H76.2105V15.8976ZM75.8465 15.8976V13.8976H73.7176L73.8504 16.0224L75.8465 15.8976ZM76.0425 19.0336H78.0425V18.9712L78.0386 18.9089L76.0425 19.0336ZM76.0425 24.7896H70.7785V28.7896H76.0425V24.7896ZM72.7785 26.7896V8.02966H68.7785V26.7896H72.7785ZM70.7785 10.0297H77.9185V6.02966H70.7785V10.0297ZM76.0895 8.83888L79.5335 16.6229L83.1915 15.0044L79.7475 7.22043L76.0895 8.83888ZM79.4939 16.5265L81.3419 21.3705L85.0791 19.9447L83.2311 15.1007L79.4939 16.5265ZM83.2105 22.6576H83.5745V18.6576H83.2105V22.6576ZM85.4538 21.342L87.2178 16.498L83.4592 15.1293L81.6952 19.9733L85.4538 21.342ZM87.1819 16.5895L90.4579 8.80547L86.7711 7.25384L83.4951 15.0378L87.1819 16.5895ZM88.6145 10.0297H95.7545V6.02966H88.6145V10.0297ZM93.7545 8.02966V26.7896H97.7545V8.02966H93.7545ZM95.7545 24.7896H90.4905V28.7896H95.7545V24.7896ZM92.4905 26.7896V19.0336H88.4905V26.7896H92.4905ZM92.4866 19.1584L92.6826 16.0224L88.6904 15.7729L88.4944 18.9089L92.4866 19.1584ZM90.6865 13.8976H90.3225V17.8976H90.6865V13.8976ZM88.4286 15.255L87.3646 18.391L91.1525 19.6762L92.2165 16.5402L88.4286 15.255ZM87.4158 18.2561L84.6158 24.8921L88.3012 26.4471L91.1012 19.8111L87.4158 18.2561ZM86.4585 23.6696H80.0745V27.6696H86.4585V23.6696ZM81.9172 24.8921L79.1172 18.2561L75.4318 19.8111L78.2318 26.4471L81.9172 24.8921ZM79.1685 18.391L78.1045 15.255L74.3165 16.5402L75.3806 19.6762L79.1685 18.391ZM76.2105 13.8976H75.8465V17.8976H76.2105V13.8976ZM73.8504 16.0224L74.0464 19.1584L78.0386 18.9089L77.8426 15.7729L73.8504 16.0224ZM74.0425 19.0336V26.7896H78.0425V19.0336H74.0425ZM102.703 26.7896V28.7896H104.703V26.7896H102.703ZM97.4387 26.7896H95.4387V28.7896H97.4387V26.7896ZM97.4387 8.02966V6.02966H95.4387V8.02966H97.4387ZM102.703 8.02966H104.703V6.02966H102.703V8.02966ZM114.099 26.7896V28.7896H116.099V26.7896H114.099ZM98.8667 26.7896H96.8667V28.7896H98.8667V26.7896ZM98.8667 22.0576V20.0576H96.8667V22.0576H98.8667ZM114.099 22.0576H116.099V20.0576H114.099V22.0576ZM113.679 19.7056V21.7056H115.679V19.7056H113.679ZM98.8667 19.7056H96.8667V21.7056H98.8667V19.7056ZM98.8667 15.0016V13.0016H96.8667V15.0016H98.8667ZM113.679 15.0016H115.679V13.0016H113.679V15.0016ZM114.099 12.7616V14.7616H116.099V12.7616H114.099ZM98.8667 12.7616H96.8667V14.7616H98.8667V12.7616ZM98.8667 8.02966V6.02966H96.8667V8.02966H98.8667ZM114.099 8.02966H116.099V6.02966H114.099V8.02966ZM102.703 24.7896H97.4387V28.7896H102.703V24.7896ZM99.4387 26.7896V8.02966H95.4387V26.7896H99.4387ZM97.4387 10.0297H102.703V6.02966H97.4387V10.0297ZM100.703 8.02966V26.7896H104.703V8.02966H100.703ZM114.099 24.7896H98.8667V28.7896H114.099V24.7896ZM100.867 26.7896V22.0576H96.8667V26.7896H100.867ZM98.8667 24.0576H114.099V20.0576H98.8667V24.0576ZM112.099 22.0576V26.7896H116.099V22.0576H112.099ZM113.679 17.7056H98.8667V21.7056H113.679V17.7056ZM100.867 19.7056V15.0016H96.8667V19.7056H100.867ZM98.8667 17.0016H113.679V13.0016H98.8667V17.0016ZM111.679 15.0016V19.7056H115.679V15.0016H111.679ZM114.099 10.7616H98.8667V14.7616H114.099V10.7616ZM100.867 12.7616V8.02966H96.8667V12.7616H100.867ZM98.8667 10.0297H114.099V6.02966H98.8667V10.0297ZM112.099 8.02966V12.7616H116.099V8.02966H112.099ZM120.859 26.7896V28.7896H122.859V26.7896H120.859ZM115.595 26.7896H113.595V28.7896H115.595V26.7896ZM115.595 8.02966V6.02966H113.595V8.02966H115.595ZM133.235 10.6616L131.56 11.7542L131.574 11.7754L131.588 11.7962L133.235 10.6616ZM133.571 16.3456L131.773 15.4697L131.768 15.4796L131.763 15.4895L133.571 16.3456ZM131.947 18.0816L132.944 19.8154L132.96 19.8062L132.976 19.7966L131.947 18.0816ZM129.035 18.9496L128.787 16.9651L127.035 17.1841V18.9496H129.035ZM129.035 19.2296H127.035V20.7912L128.55 21.1699L129.035 19.2296ZM131.107 20.3216L129.58 21.6135L129.607 21.6452L129.635 21.6758L131.107 20.3216ZM132.283 22.0856L134.076 21.1997L134.072 21.1912L132.283 22.0856ZM134.607 26.7896V28.7896H137.826L136.4 25.9038L134.607 26.7896ZM128.531 26.7896L126.733 27.6665L127.281 28.7896H128.531V26.7896ZM126.291 22.1976L124.488 23.0631L124.493 23.0745L126.291 22.1976ZM124.639 20.5736L124.089 22.4967L124.132 22.5089L124.176 22.5192L124.639 20.5736ZM120.859 20.4056V18.4056H118.859V20.4056H120.859ZM120.859 12.7616V10.7616H118.859V12.7616H120.859ZM120.859 16.4856H118.859V18.4856H120.859V16.4856ZM120.859 24.7896H115.595V28.7896H120.859V24.7896ZM117.595 26.7896V8.02966H113.595V26.7896H117.595ZM115.595 10.0297H126.543V6.02966H115.595V10.0297ZM126.543 10.0297C128.039 10.0297 129.159 10.2335 129.972 10.5586L131.458 6.8447C130.031 6.27384 128.369 6.02966 126.543 6.02966V10.0297ZM129.972 10.5586C130.779 10.8815 131.262 11.2978 131.56 11.7542L134.91 9.56912C134.088 8.30814 132.89 7.41779 131.458 6.8447L129.972 10.5586ZM131.588 11.7962C131.892 12.2384 132.103 12.8573 132.103 13.7696H136.103C136.103 12.218 135.735 10.7649 134.882 9.52705L131.588 11.7962ZM132.103 13.7696C132.103 14.5216 131.968 15.0683 131.773 15.4697L135.369 17.2216C135.883 16.1669 136.103 14.9964 136.103 13.7696H132.103ZM131.763 15.4895C131.615 15.8034 131.364 16.0987 130.918 16.3667L132.976 19.7966C134.023 19.1686 134.855 18.3065 135.378 17.2018L131.763 15.4895ZM130.95 16.3478C130.506 16.6031 129.815 16.8365 128.787 16.9651L129.283 20.9342C130.644 20.7641 131.894 20.4188 132.944 19.8154L130.95 16.3478ZM127.035 18.9496V19.2296H131.035V18.9496H127.035ZM128.55 21.1699C129.33 21.3651 129.555 21.5843 129.58 21.6135L132.634 19.0298C131.837 18.0883 130.681 17.5796 129.52 17.2894L128.55 21.1699ZM129.635 21.6758C129.911 21.9754 130.203 22.3981 130.494 22.9801L134.072 21.1912C133.653 20.3545 133.162 19.6012 132.579 18.9675L129.635 21.6758ZM130.49 22.9715L132.814 27.6755L136.4 25.9038L134.076 21.1997L130.49 22.9715ZM134.607 24.7896H128.531V28.7896H134.607V24.7896ZM130.328 25.9128L128.088 21.3208L124.493 23.0745L126.733 27.6665L130.328 25.9128ZM128.094 21.3322C127.819 20.7584 127.482 20.2034 127.057 19.7447L124.125 22.4665C124.185 22.5305 124.315 22.7035 124.488 23.0631L128.094 21.3322ZM127.057 19.7447C126.511 19.1571 125.827 18.8006 125.102 18.628L124.176 22.5192C124.212 22.5278 124.214 22.5328 124.195 22.5225C124.186 22.5176 124.175 22.5101 124.162 22.4998C124.148 22.4895 124.136 22.4782 124.125 22.4665L127.057 19.7447ZM125.188 18.6506C124.536 18.4643 123.782 18.4056 123.015 18.4056V22.4056C123.629 22.4056 123.957 22.459 124.089 22.4967L125.188 18.6506ZM123.015 18.4056H120.859V22.4056H123.015V18.4056ZM118.859 20.4056V26.7896H122.859V20.4056H118.859ZM118.859 12.7616V16.4856H122.859V12.7616H118.859ZM120.859 18.4856H126.487V14.4856H120.859V18.4856ZM126.487 18.4856C127.33 18.4856 128.412 18.385 129.264 17.7836L126.958 14.5157C127.097 14.4172 127.169 14.421 127.062 14.4431C126.964 14.4633 126.781 14.4856 126.487 14.4856V18.4856ZM129.264 17.7836C129.899 17.3353 130.218 16.7068 130.379 16.1872C130.539 15.6699 130.587 15.1226 130.587 14.6096H126.587C126.587 14.7463 126.58 14.8474 126.572 14.918C126.563 14.9898 126.554 15.0151 126.557 15.006C126.559 14.9998 126.64 14.74 126.958 14.5157L129.264 17.7836ZM130.587 14.6096C130.587 13.7467 130.435 12.3852 129.326 11.5369L126.896 14.7144C126.646 14.5228 126.572 14.3149 126.563 14.2895C126.559 14.276 126.566 14.2929 126.573 14.3505C126.581 14.4073 126.587 14.4921 126.587 14.6096H130.587ZM129.326 11.5369C128.46 10.875 127.347 10.7616 126.487 10.7616V14.7616C126.774 14.7616 126.945 14.7853 127.029 14.8042C127.121 14.8247 127.038 14.8232 126.896 14.7144L129.326 11.5369ZM126.487 10.7616H120.859V14.7616H126.487V10.7616ZM139.954 25.8936L139.034 27.6695L139.043 27.6739L139.051 27.6782L139.954 25.8936ZM136.398 22.5336L134.656 23.5163L134.662 23.5259L136.398 22.5336ZM136.398 12.3136L138.135 13.3059L138.14 13.2963L136.398 12.3136ZM139.954 8.95366L140.857 10.7382L140.866 10.7339L140.874 10.7295L139.954 8.95366ZM150.93 8.70166L150.148 10.5423L150.156 10.5458L150.93 8.70166ZM155.606 16.2336V18.2336H157.606V16.2336H155.606ZM149.726 16.2336H147.726V18.2336H149.726V16.2336ZM148.83 13.4896L147.599 15.0657L147.615 15.0778L147.63 15.0896L148.83 13.4896ZM142.642 13.1816L143.305 15.0686L143.32 15.0635L143.334 15.0583L142.642 13.1816ZM141.186 14.5536L143.025 15.3415L143.029 15.3322L143.033 15.3229L141.186 14.5536ZM142.642 21.6656L141.935 23.5362L141.965 23.5476L141.995 23.558L142.642 21.6656ZM148.83 21.3576L150.03 22.9576L150.046 22.9458L150.062 22.9337L148.83 21.3576ZM149.726 18.5856V16.5856H147.726V18.5856H149.726ZM155.606 18.5856H157.606V16.5856H155.606V18.5856ZM154.402 23.3736L156.063 24.489L156.067 24.4831L156.071 24.4771L154.402 23.3736ZM150.93 26.1176L150.156 24.2735L150.148 24.277L150.93 26.1176ZM145.526 25.0696C143.599 25.0696 142.066 24.7208 140.857 24.1091L139.051 27.6782C140.941 28.6345 143.123 29.0696 145.526 29.0696V25.0696ZM140.874 24.1178C139.648 23.4822 138.755 22.6259 138.135 21.5414L134.662 23.5259C135.685 25.3161 137.163 26.6997 139.034 27.6695L140.874 24.1178ZM138.14 21.551C137.515 20.4429 137.166 19.0851 137.166 17.4096H133.166C133.166 19.6542 133.638 21.7123 134.656 23.5163L138.14 21.551ZM137.166 17.4096C137.166 15.7334 137.516 14.3897 138.135 13.3059L134.662 11.3214C133.639 13.1122 133.166 15.1659 133.166 17.4096H137.166ZM138.14 13.2963C138.76 12.1985 139.646 11.351 140.857 10.7382L139.051 7.16912C137.164 8.12431 135.68 9.51683 134.657 11.331L138.14 13.2963ZM140.874 10.7295C142.079 10.1054 143.606 9.74966 145.526 9.74966V5.74966C143.117 5.74966 140.928 6.19658 139.034 7.17782L140.874 10.7295ZM145.526 9.74966C147.444 9.74966 148.964 10.0392 150.148 10.5423L151.713 6.86099C149.91 6.09476 147.828 5.74966 145.526 5.74966V9.74966ZM150.156 10.5458C151.36 11.0509 152.187 11.7341 152.742 12.561L156.063 10.3303C155.013 8.76781 153.525 7.62169 151.705 6.85753L150.156 10.5458ZM152.742 12.561C153.288 13.3736 153.606 14.4069 153.606 15.7576H157.606C157.606 13.7484 157.122 11.907 156.063 10.3303L152.742 12.561ZM153.606 15.7576V16.2336H157.606V15.7576H153.606ZM155.606 14.2336H149.726V18.2336H155.606V14.2336ZM151.726 16.2336V15.7576H147.726V16.2336H151.726ZM151.726 15.7576C151.726 14.3471 151.321 12.8578 150.03 11.8896L147.63 15.0896C147.607 15.0723 147.616 15.0618 147.642 15.1275C147.676 15.2115 147.726 15.4035 147.726 15.7576H151.726ZM150.062 11.9136C148.897 11.0034 147.219 10.7896 145.61 10.7896V14.7896C146.296 14.7896 146.799 14.8422 147.153 14.919C147.518 14.9983 147.619 15.0815 147.599 15.0657L150.062 11.9136ZM145.61 10.7896C144.243 10.7896 142.982 10.9251 141.951 11.3049L143.334 15.0583C143.722 14.9155 144.439 14.7896 145.61 14.7896V10.7896ZM141.98 11.2947C140.757 11.7242 139.84 12.5856 139.34 13.7844L143.033 15.3229C143.093 15.1777 143.146 15.1244 143.305 15.0686L141.98 11.2947ZM139.348 13.7658C138.909 14.7898 138.766 16.0628 138.766 17.4096H142.766C142.766 16.2552 142.904 15.6241 143.025 15.3415L139.348 13.7658ZM138.766 17.4096C138.766 18.7481 138.912 20.0068 139.34 21.0349L143.033 19.4964C142.901 19.1805 142.766 18.5352 142.766 17.4096H138.766ZM139.34 21.0349C139.835 22.2232 140.738 23.0832 141.935 23.5362L143.35 19.7951C143.166 19.7254 143.097 19.6521 143.033 19.4964L139.34 21.0349ZM141.995 23.558C143.008 23.9045 144.251 24.0296 145.61 24.0296V20.0296C144.431 20.0296 143.695 19.9121 143.29 19.7733L141.995 23.558ZM145.61 24.0296C147.211 24.0296 148.872 23.8265 150.03 22.9576L147.63 19.7576C147.65 19.7433 147.542 19.8259 147.169 19.9038C146.809 19.9789 146.299 20.0296 145.61 20.0296V24.0296ZM150.062 22.9337C151.319 21.9514 151.726 20.4788 151.726 19.0616H147.726C147.726 19.4147 147.676 19.6129 147.639 19.7066C147.622 19.7507 147.609 19.7703 147.605 19.7753C147.602 19.7795 147.601 19.7801 147.599 19.7816L150.062 22.9337ZM151.726 19.0616V18.5856H147.726V19.0616H151.726ZM149.726 20.5856H155.606V16.5856H149.726V20.5856ZM153.606 18.5856V19.0616H157.606V18.5856H153.606ZM153.606 19.0616C153.606 20.3879 153.291 21.4289 152.734 22.2702L156.071 24.4771C157.119 22.8917 157.606 21.058 157.606 19.0616H153.606ZM152.742 22.2583C152.187 23.0851 151.36 23.7683 150.156 24.2735L151.705 27.9618C153.525 27.1976 155.013 26.0515 156.063 24.489L152.742 22.2583ZM150.148 24.277C148.964 24.7801 147.444 25.0696 145.526 25.0696V29.0696C147.828 29.0696 149.91 28.7245 151.713 27.9583L150.148 24.277ZM162.257 26.7896V28.7896H164.257V26.7896H162.257ZM156.993 26.7896H154.993V28.7896H156.993V26.7896ZM156.993 8.02966V6.02966H154.993V8.02966H156.993ZM162.257 8.02966H164.257V6.02966H162.257V8.02966ZM173.653 26.7896V28.7896H175.653V26.7896H173.653ZM158.421 26.7896H156.421V28.7896H158.421V26.7896ZM158.421 22.0576V20.0576H156.421V22.0576H158.421ZM173.653 22.0576H175.653V20.0576H173.653V22.0576ZM173.233 19.7056V21.7056H175.233V19.7056H173.233ZM158.421 19.7056H156.421V21.7056H158.421V19.7056ZM158.421 15.0016V13.0016H156.421V15.0016H158.421ZM173.233 15.0016H175.233V13.0016H173.233V15.0016ZM173.653 12.7616V14.7616H175.653V12.7616H173.653ZM158.421 12.7616H156.421V14.7616H158.421V12.7616ZM158.421 8.02966V6.02966H156.421V8.02966H158.421ZM173.653 8.02966H175.653V6.02966H173.653V8.02966ZM162.257 24.7896H156.993V28.7896H162.257V24.7896ZM158.993 26.7896V8.02966H154.993V26.7896H158.993ZM156.993 10.0297H162.257V6.02966H156.993V10.0297ZM160.257 8.02966V26.7896H164.257V8.02966H160.257ZM173.653 24.7896H158.421V28.7896H173.653V24.7896ZM160.421 26.7896V22.0576H156.421V26.7896H160.421ZM158.421 24.0576H173.653V20.0576H158.421V24.0576ZM171.653 22.0576V26.7896H175.653V22.0576H171.653ZM173.233 17.7056H158.421V21.7056H173.233V17.7056ZM160.421 19.7056V15.0016H156.421V19.7056H160.421ZM158.421 17.0016H173.233V13.0016H158.421V17.0016ZM171.233 15.0016V19.7056H175.233V15.0016H171.233ZM173.653 10.7616H158.421V14.7616H173.653V10.7616ZM160.421 12.7616V8.02966H156.421V12.7616H160.421ZM158.421 10.0297H173.653V6.02966H158.421V10.0297ZM171.653 8.02966V12.7616H175.653V8.02966H171.653ZM184.324 26.7896V28.7896H186.324V26.7896H184.324ZM179.06 26.7896H177.06V28.7896H179.06V26.7896ZM179.06 8.02966V6.02966H177.06V8.02966H179.06ZM184.324 8.02966H186.324V6.02966H184.324V8.02966ZM195.72 26.7896V28.7896H197.72V26.7896H195.72ZM180.488 26.7896H178.488V28.7896H180.488V26.7896ZM180.488 22.0576V20.0576H178.488V22.0576H180.488ZM195.72 22.0576H197.72V20.0576H195.72V22.0576ZM195.3 19.7056V21.7056H197.3V19.7056H195.3ZM180.488 19.7056H178.488V21.7056H180.488V19.7056ZM180.488 15.0016V13.0016H178.488V15.0016H180.488ZM195.3 15.0016H197.3V13.0016H195.3V15.0016ZM195.72 12.7616V14.7616H197.72V12.7616H195.72ZM180.488 12.7616H178.488V14.7616H180.488V12.7616ZM180.488 8.02966V6.02966H178.488V8.02966H180.488ZM195.72 8.02966H197.72V6.02966H195.72V8.02966ZM190.176 6.34966V8.34966H190.779L191.281 8.01629L190.176 6.34966ZM184.52 6.34966L183.1 4.94075L179.717 8.34966H184.52V6.34966ZM188.244 2.59766V0.597656H187.411L186.824 1.18875L188.244 2.59766ZM195.832 2.59766L196.937 4.26429L202.465 0.597656H195.832V2.59766ZM184.324 24.7896H179.06V28.7896H184.324V24.7896ZM181.06 26.7896V8.02966H177.06V26.7896H181.06ZM179.06 10.0297H184.324V6.02966H179.06V10.0297ZM182.324 8.02966V26.7896H186.324V8.02966H182.324ZM195.72 24.7896H180.488V28.7896H195.72V24.7896ZM182.488 26.7896V22.0576H178.488V26.7896H182.488ZM180.488 24.0576H195.72V20.0576H180.488V24.0576ZM193.72 22.0576V26.7896H197.72V22.0576H193.72ZM195.3 17.7056H180.488V21.7056H195.3V17.7056ZM182.488 19.7056V15.0016H178.488V19.7056H182.488ZM180.488 17.0016H195.3V13.0016H180.488V17.0016ZM193.3 15.0016V19.7056H197.3V15.0016H193.3ZM195.72 10.7616H180.488V14.7616H195.72V10.7616ZM182.488 12.7616V8.02966H178.488V12.7616H182.488ZM180.488 10.0297H195.72V6.02966H180.488V10.0297ZM193.72 8.02966V12.7616H197.72V8.02966H193.72ZM190.176 4.34966H184.52V8.34966H190.176V4.34966ZM185.939 7.75856L189.663 4.00656L186.824 1.18875L183.1 4.94075L185.939 7.75856ZM188.244 4.59766H195.832V0.597656H188.244V4.59766ZM194.726 0.931021L189.07 4.68302L191.281 8.01629L196.937 4.26429L194.726 0.931021ZM202.48 26.7896V28.7896H204.48V26.7896H202.48ZM197.216 26.7896H195.216V28.7896H197.216V26.7896ZM197.216 8.02966V6.02966H195.216V8.02966H197.216ZM204.356 8.02966L206.185 7.22043L205.658 6.02966H204.356V8.02966ZM207.8 15.8136L209.669 15.1007L209.65 15.0521L209.629 15.0044L207.8 15.8136ZM209.648 20.6576L207.779 21.3705L208.27 22.6576H209.648V20.6576ZM210.012 20.6576V22.6576H211.412L211.891 21.342L210.012 20.6576ZM211.776 15.8136L209.933 15.0378L209.914 15.0831L209.897 15.1293L211.776 15.8136ZM215.052 8.02966V6.02966H213.724L213.209 7.25384L215.052 8.02966ZM222.192 8.02966H224.192V6.02966H222.192V8.02966ZM222.192 26.7896V28.7896H224.192V26.7896H222.192ZM216.928 26.7896H214.928V28.7896H216.928V26.7896ZM216.928 19.0336L214.932 18.9089L214.928 18.9712V19.0336H216.928ZM217.124 15.8976L219.12 16.0224L219.253 13.8976H217.124V15.8976ZM216.76 15.8976V13.8976H215.327L214.866 15.255L216.76 15.8976ZM215.696 19.0336L217.539 19.8111L217.567 19.7446L217.59 19.6762L215.696 19.0336ZM212.896 25.6696V27.6696H214.223L214.739 26.4471L212.896 25.6696ZM206.512 25.6696L204.669 26.4471L205.185 27.6696H206.512V25.6696ZM203.712 19.0336L201.818 19.6762L201.841 19.7446L201.869 19.8111L203.712 19.0336ZM202.648 15.8976L204.542 15.255L204.081 13.8976H202.648V15.8976ZM202.284 15.8976V13.8976H200.155L200.288 16.0224L202.284 15.8976ZM202.48 19.0336H204.48V18.9712L204.476 18.9089L202.48 19.0336ZM202.48 24.7896H197.216V28.7896H202.48V24.7896ZM199.216 26.7896V8.02966H195.216V26.7896H199.216ZM197.216 10.0297H204.356V6.02966H197.216V10.0297ZM202.527 8.83888L205.971 16.6229L209.629 15.0044L206.185 7.22043L202.527 8.83888ZM205.931 16.5265L207.779 21.3705L211.517 19.9447L209.669 15.1007L205.931 16.5265ZM209.648 22.6576H210.012V18.6576H209.648V22.6576ZM211.891 21.342L213.655 16.498L209.897 15.1293L208.133 19.9733L211.891 21.342ZM213.619 16.5895L216.895 8.80547L213.209 7.25384L209.933 15.0378L213.619 16.5895ZM215.052 10.0297H222.192V6.02966H215.052V10.0297ZM220.192 8.02966V26.7896H224.192V8.02966H220.192ZM222.192 24.7896H216.928V28.7896H222.192V24.7896ZM218.928 26.7896V19.0336H214.928V26.7896H218.928ZM218.924 19.1584L219.12 16.0224L215.128 15.7729L214.932 18.9089L218.924 19.1584ZM217.124 13.8976H216.76V17.8976H217.124V13.8976ZM214.866 15.255L213.802 18.391L217.59 19.6762L218.654 16.5402L214.866 15.255ZM213.853 18.2561L211.053 24.8921L214.739 26.4471L217.539 19.8111L213.853 18.2561ZM212.896 23.6696H206.512V27.6696H212.896V23.6696ZM208.355 24.8921L205.555 18.2561L201.869 19.8111L204.669 26.4471L208.355 24.8921ZM205.606 18.391L204.542 15.255L200.754 16.5402L201.818 19.6762L205.606 18.391ZM202.648 13.8976H202.284V17.8976H202.648V13.8976ZM200.288 16.0224L200.484 19.1584L204.476 18.9089L204.28 15.7729L200.288 16.0224ZM200.48 19.0336V26.7896H204.48V19.0336H200.48ZM256.511 26.7896V28.7896H258.511V26.7896H256.511ZM251.247 26.7896H249.247V28.7896H251.247V26.7896ZM251.247 8.02966V6.02966H249.247V8.02966H251.247ZM256.511 8.02966H258.511V6.02966H256.511V8.02966ZM256.511 24.7896H251.247V28.7896H256.511V24.7896ZM253.247 26.7896V8.02966H249.247V26.7896H253.247ZM251.247 10.0297H256.511V6.02966H251.247V10.0297ZM254.511 8.02966V26.7896H258.511V8.02966H254.511Z" fill="#0C0402"/>
</g>
<path d="M236.422 4.81348C232.956 4.81348 229.63 6.13975 227.177 8.50261C224.724 10.8657 223.344 14.0721 223.344 17.417C223.344 21.6956 226.197 26.1388 228.978 29.4728C231.717 32.7571 234.532 35.1324 234.962 35.4557L235.007 35.4931C235.822 36.1694 237.022 36.1694 237.837 35.4931L237.882 35.4557C238.313 35.1325 241.127 32.7571 243.867 29.4728C246.648 26.1388 249.501 21.6956 249.501 17.417C249.501 14.0721 248.121 10.8657 245.668 8.50261C243.214 6.13975 239.889 4.81348 236.422 4.81348ZM236.422 22.6591C235.343 22.6591 234.289 22.3507 233.392 21.7739C232.496 21.1971 231.798 20.378 231.387 19.4208C230.975 18.4638 230.868 17.4111 231.078 16.3955C231.287 15.38 231.805 14.4462 232.567 13.7126C233.328 12.979 234.3 12.4787 235.358 12.2758C236.416 12.0731 237.513 12.1772 238.51 12.5749C239.506 12.9724 240.357 13.6453 240.955 14.5073C241.553 15.3691 241.872 16.3817 241.872 17.417C241.872 18.8051 241.299 20.1377 240.278 21.1213C239.257 22.1051 237.87 22.6591 236.422 22.6591Z" fill="#FFA800" stroke="#0C0402" stroke-width="2"/>
</g>
<defs>
<clipPath id="clip0_19256_49891">
<rect width="259" height="37" fill="white" transform="translate(0 0.578613)"/>
</clipPath>
</defs>
</svg>
